<svg width="884" height="772" viewBox="0 0 884 772" fill="none" xmlns="http://www.w3.org/2000/svg">
<g clip-path="url(#clip0_565_2512)">
<path d="M442 660.152C631.322 660.152 784.798 652.327 784.798 642.674C784.798 633.021 631.322 625.196 442 625.196C252.678 625.196 99.2026 633.021 99.2026 642.674C99.2026 652.327 252.678 660.152 442 660.152Z" fill="#F5F5F5"/>
<path d="M392.708 141.492C392.708 141.492 400.806 135.903 402.892 132.321C404.66 129.233 405.933 124.941 404.112 121.698C403.719 120.916 403.141 120.215 402.417 119.642C401.692 119.068 400.837 118.635 399.908 118.369C398.978 118.104 397.995 118.013 397.023 118.103C396.05 118.192 395.11 118.46 394.264 118.888C389.261 121.606 388.73 130.839 390.003 135.285C390.109 135.718 392.62 141.554 392.708 141.492Z" fill="#3A6F6D"/>
<path d="M317.798 188.043C318.134 188.321 323.915 191.98 323.933 191.888C323.951 191.795 327.168 183.318 326.638 179.335C326.178 175.938 324.516 171.708 320.945 169.886C320.123 169.427 319.198 169.125 318.233 169C317.267 168.875 316.283 168.929 315.343 169.16C314.403 169.39 313.53 169.791 312.78 170.337C312.03 170.882 311.421 171.56 310.991 172.325C308.534 176.988 313.926 184.955 317.798 188.043Z" fill="#3A6F6D"/>
<path d="M487.579 149.953C487.579 149.953 457.912 176.695 458.071 209.536C458.23 242.377 488.127 268.903 488.127 268.903C488.127 268.903 517.794 242.161 517.635 209.32C517.476 176.479 487.579 149.953 487.579 149.953Z" fill="#3A6F6D"/>
<path d="M445.289 229.222C445.672 228.847 446.026 228.449 446.349 228.033C448.506 225.177 450.345 221.023 448.966 217.611C448.673 216.798 448.187 216.047 447.54 215.408C446.893 214.77 446.099 214.258 445.21 213.905C444.321 213.552 443.356 213.368 442.38 213.362C441.403 213.357 440.437 213.532 439.543 213.875C435.512 215.542 433.549 221.178 433.125 225.794C431.516 225.47 430.066 225.223 428.811 225.038C428.28 224.003 427.75 222.938 427.202 221.95C426.654 220.962 426.212 219.757 425.699 218.646C424.992 217.009 424.355 215.28 423.701 213.566C426.053 212.639 432.895 209.86 435.441 207.39C437.987 204.919 440.603 200.982 439.825 197.431C439.677 196.588 439.327 195.782 438.799 195.066C438.27 194.349 437.574 193.738 436.757 193.272C435.94 192.805 435.019 192.495 434.055 192.36C433.091 192.226 432.105 192.27 431.162 192.49C425.522 194.034 422.216 202.742 422.092 207.328C422.092 207.483 422.092 208.455 422.305 209.598C421.739 207.899 421.155 206.216 420.66 204.487C419.211 199.562 417.902 194.513 416.576 189.464C416.311 188.399 416.011 187.364 415.728 186.376C417.708 185.619 425.133 182.655 427.803 180.077C430.473 177.498 432.983 173.669 432.205 170.118C432.055 169.274 431.703 168.468 431.172 167.752C430.642 167.035 429.945 166.424 429.126 165.958C428.307 165.492 427.385 165.181 426.42 165.047C425.455 164.912 424.469 164.957 423.525 165.177C417.902 166.721 414.596 175.429 414.472 180.015C414.472 180.169 414.578 181.327 414.72 182.624C413.942 179.891 413.146 177.174 412.262 174.487C410.761 169.885 408.906 165.377 406.711 160.993C407.418 160.73 416.205 157.411 419.175 154.539C421.81 152.007 424.338 148.131 423.56 144.58C423.412 143.737 423.062 142.931 422.533 142.215C422.004 141.498 421.309 140.887 420.491 140.421C419.674 139.954 418.753 139.644 417.789 139.509C416.825 139.375 415.84 139.419 414.897 139.639C409.274 141.183 405.951 149.891 405.845 154.477C405.845 154.801 406.269 158.985 406.481 160.483V160.329C404.214 156.063 401.51 151.986 398.401 148.147C395.678 144.7 392.726 141.395 389.561 138.25C386.644 135.316 383.762 132.768 381.199 130.53C379.784 129.341 378.476 128.26 377.256 127.272H377.38C377.486 127.272 374.622 121.543 374.392 121.204C371.775 117.236 364.014 110.936 358.268 111.94C357.32 112.146 356.433 112.524 355.664 113.048C354.895 113.573 354.26 114.233 353.802 114.986C353.343 115.738 353.071 116.567 353.003 117.417C352.935 118.268 353.072 119.121 353.406 119.922C354.696 123.365 359.046 125.681 362.758 126.793C366.471 127.905 374.834 127.395 376.902 127.225C378.158 128.275 379.484 129.418 380.916 130.684C383.426 132.954 386.22 135.548 389.084 138.527C389.826 139.315 390.604 140.21 391.382 141.044C389.738 139.855 387.475 138.265 387.227 138.126C382.807 135.671 372.588 133.201 368.08 136.474C367.344 137.034 366.751 137.724 366.341 138.498C365.931 139.272 365.713 140.113 365.701 140.966C365.69 141.819 365.885 142.664 366.273 143.447C366.662 144.229 367.235 144.931 367.956 145.506C370.909 148.054 376.018 148.347 379.89 147.853C383.762 147.359 391.152 143.391 392.726 142.511C394.406 144.395 396.085 146.371 397.694 148.517C400.651 152.373 403.213 156.45 405.349 160.699C405.473 160.946 405.562 161.209 405.685 161.456C404.996 160.746 400.859 157.117 400.541 156.824C396.456 153.952 386.626 150.509 381.711 153.334C380.91 153.822 380.236 154.452 379.733 155.183C379.23 155.913 378.908 156.729 378.79 157.575C378.671 158.421 378.759 159.28 379.046 160.095C379.333 160.91 379.813 161.663 380.456 162.305C383.09 165.115 388.111 165.903 392.019 165.779C396.545 165.64 405.42 161.718 405.756 161.579C407.76 165.863 409.437 170.258 410.777 174.734C411.785 178.038 412.669 181.435 413.5 184.832C412.581 183.937 408.744 180.555 408.426 180.339C404.342 177.467 394.512 174.024 389.597 176.85C388.796 177.337 388.122 177.967 387.618 178.698C387.115 179.429 386.794 180.244 386.675 181.09C386.557 181.937 386.644 182.795 386.931 183.61C387.218 184.425 387.699 185.178 388.341 185.82C390.976 188.63 395.997 189.418 399.904 189.294C404.324 189.155 412.846 185.434 413.571 185.125C413.96 186.669 414.331 188.213 414.702 189.757C415.904 194.822 417.089 199.917 418.415 204.904C418.875 206.633 419.405 208.316 419.935 210.015C418.486 208.702 415.816 206.355 415.569 206.17C411.484 203.314 401.637 199.871 396.739 202.681C395.938 203.169 395.264 203.798 394.761 204.529C394.258 205.26 393.936 206.075 393.818 206.921C393.699 207.768 393.787 208.626 394.074 209.441C394.361 210.256 394.841 211.009 395.484 211.651C398.101 214.461 403.139 215.264 407.047 215.125C410.954 214.986 418.238 212.037 420.271 211.142C421.155 213.952 422.039 216.731 423.206 219.418C423.701 220.576 424.126 221.78 424.674 222.861L425.505 224.575L424.373 224.482C424.373 224.482 424.373 226.026 424.462 228.697C420.148 226.011 413.854 223.695 409.876 225.331C409.001 225.708 408.227 226.241 407.604 226.896C406.981 227.551 406.523 228.314 406.259 229.134C405.996 229.953 405.933 230.813 406.075 231.655C406.216 232.498 406.56 233.305 407.082 234.024C407.346 234.411 407.648 234.778 407.984 235.12C408.767 239.078 410.69 242.797 413.571 245.928C413.783 246.16 416.718 248.522 418.256 249.695C416.771 249.001 415.303 248.306 413.783 247.565C411.573 246.484 409.292 245.295 407.064 244.153L403.635 242.253C402.468 241.62 401.425 240.91 400.293 240.231C398.666 239.196 397.04 238.069 395.431 236.942C396.81 235.058 400.735 229.438 401.318 226.134C401.902 222.83 401.566 218.291 398.684 215.697C398.031 215.062 397.232 214.555 396.34 214.207C395.447 213.86 394.481 213.68 393.504 213.68C392.527 213.68 391.561 213.86 390.668 214.207C389.776 214.555 388.977 215.062 388.324 215.697C384.558 219.634 387.351 228.558 390.092 232.434C390.092 232.557 390.87 233.329 391.701 234.225C390.162 233.082 388.607 231.955 387.086 230.751C382.772 227.354 378.494 223.756 374.197 220.19L371.492 217.966C372.659 216.422 376.991 210.246 377.592 206.896C378.193 203.545 377.857 199.052 374.958 196.458C374.304 195.826 373.507 195.321 372.616 194.975C371.725 194.629 370.761 194.451 369.786 194.451C368.811 194.451 367.847 194.629 366.956 194.975C366.066 195.321 365.268 195.826 364.615 196.458C360.849 200.396 363.625 209.32 366.383 213.195C366.489 213.334 367.32 214.245 368.239 215.264C365.888 213.35 363.483 211.466 361.061 209.66C356.899 206.546 352.505 203.678 347.907 201.075C348.331 200.519 353.565 193.509 354.219 189.696C354.82 186.299 354.484 181.852 351.602 179.258C350.94 178.636 350.139 178.14 349.247 177.801C348.356 177.462 347.394 177.287 346.422 177.287C345.45 177.287 344.488 177.462 343.597 177.801C342.705 178.14 341.904 178.636 341.242 179.258C337.476 183.195 340.269 192.12 343.01 195.995C343.204 196.273 346.21 199.546 347.341 200.627L347.182 200.535C342.594 198.078 337.767 195.98 332.755 194.266C328.286 192.717 323.717 191.397 319.071 190.313C314.775 189.263 310.761 188.538 307.208 187.92C305.298 187.596 303.53 187.333 301.904 187.102H302.01C302.01 187.102 296.105 183.643 295.698 183.473C290.995 181.435 280.546 179.907 276.445 183.581C275.784 184.209 275.281 184.951 274.97 185.758C274.658 186.566 274.545 187.422 274.636 188.271C274.728 189.12 275.023 189.942 275.502 190.685C275.981 191.428 276.633 192.075 277.417 192.583C280.67 194.837 285.762 194.667 289.563 193.818C293.364 192.969 300.012 188.476 301.639 187.364C303.407 187.627 305.175 187.935 307.172 188.306C310.708 188.985 314.669 189.85 318.93 190.915C320.061 191.209 321.263 191.579 322.466 191.904C320.344 191.703 317.445 191.471 317.162 191.471C311.858 191.471 301.833 194.405 300.136 199.315C299.878 200.137 299.821 200.998 299.969 201.84C300.117 202.683 300.467 203.489 300.996 204.206C301.525 204.923 302.22 205.534 303.038 206C303.855 206.466 304.776 206.777 305.74 206.911C309.807 207.606 314.262 205.367 317.179 203.113C320.097 200.859 323.756 193.973 324.517 192.475C327.098 193.247 329.821 194.019 332.437 195.1C337.36 196.883 342.093 199.043 346.581 201.554C346.829 201.708 347.076 201.893 347.341 202.032C346.316 201.785 340.57 200.735 340.163 200.704C334.859 200.272 324.552 202.14 322.253 206.88C321.896 207.673 321.733 208.523 321.775 209.374C321.818 210.225 322.064 211.06 322.499 211.822C322.934 212.585 323.548 213.259 324.301 213.802C325.053 214.344 325.928 214.743 326.868 214.971C330.828 216.052 335.531 214.276 338.714 212.3C342.391 209.999 347.324 202.449 347.554 202.171C351.921 204.784 356.091 207.642 360.036 210.725C362.988 212.995 365.852 215.357 368.699 217.843C367.355 217.534 362.016 216.561 361.627 216.53C356.323 216.113 346.033 217.982 343.717 222.706C343.359 223.499 343.196 224.349 343.239 225.2C343.281 226.051 343.528 226.886 343.963 227.648C344.398 228.411 345.012 229.085 345.764 229.628C346.517 230.17 347.391 230.569 348.331 230.797C352.292 231.878 356.995 230.118 360.177 228.126C363.713 225.887 368.54 218.661 369.017 218.059L372.907 221.379C377.115 225.038 381.305 228.713 385.566 232.187C387.051 233.406 388.553 234.564 390.056 235.722C388.041 235.321 384.328 234.641 383.992 234.626C378.776 234.194 368.398 236.062 366.082 240.802C365.725 241.596 365.563 242.447 365.606 243.299C365.65 244.151 365.898 244.985 366.335 245.748C366.771 246.511 367.387 247.186 368.142 247.727C368.896 248.269 369.773 248.666 370.714 248.893C374.675 249.958 379.36 248.198 382.542 246.221C385.725 244.245 389.915 238.224 391.064 236.525C393.575 238.44 396.121 240.293 398.737 242.006C399.886 242.732 401 243.55 402.132 244.168L405.509 246.129C407.86 247.41 410.052 248.599 412.28 249.742L415.569 251.394C413.588 250.715 410.424 249.695 410.123 249.634C405.031 248.522 394.459 248.985 391.347 253.355C390.858 254.091 390.551 254.909 390.446 255.756C390.342 256.602 390.442 257.459 390.74 258.269C391.038 259.08 391.528 259.827 392.178 260.462C392.828 261.097 393.623 261.605 394.512 261.955C398.242 263.499 403.193 262.418 406.675 260.874C410.53 259.176 416.329 252.907 417.036 252.135C419.741 253.478 422.34 254.76 424.868 255.918C431.534 259.006 437.244 261.523 441.841 263.36C456.498 274.43 477.201 275.712 477.201 275.712C477.201 275.712 478.297 254.096 463.746 239.953C458.577 235.229 452.273 231.565 445.289 229.222ZM419.122 250.251C419.582 249.356 423.083 242.531 423.33 238.64C424.143 238.517 424.974 238.363 425.77 238.208C427.254 245.021 430.349 251.49 434.857 257.199C432.188 256.088 429.306 254.868 426.247 253.509C423.967 252.49 421.58 251.394 419.122 250.251Z" fill="#3A6F6D"/>
<path d="M553.384 225.084C553.384 225.084 528.632 225.748 513.551 239.474C498.47 253.2 498.576 274.832 498.576 274.832C498.576 274.832 523.328 274.168 538.409 260.442C553.49 246.715 553.384 225.084 553.384 225.084Z" fill="#3A6F6D"/>
<g opacity="0.5">
<path d="M392.708 141.492C392.708 141.492 400.806 135.903 402.892 132.321C404.66 129.233 405.933 124.941 404.112 121.698C403.719 120.916 403.141 120.215 402.417 119.642C401.692 119.068 400.837 118.635 399.908 118.369C398.978 118.104 397.995 118.013 397.023 118.103C396.05 118.192 395.11 118.46 394.264 118.888C389.261 121.606 388.73 130.839 390.003 135.285C390.109 135.718 392.62 141.554 392.708 141.492Z" fill="white"/>
<path d="M317.798 188.043C318.134 188.321 323.915 191.98 323.933 191.888C323.951 191.795 327.168 183.318 326.638 179.335C326.178 175.938 324.516 171.708 320.945 169.886C320.123 169.427 319.198 169.125 318.233 169C317.267 168.875 316.283 168.929 315.343 169.16C314.403 169.39 313.53 169.791 312.78 170.337C312.03 170.882 311.421 171.56 310.991 172.325C308.534 176.988 313.926 184.955 317.798 188.043Z" fill="white"/>
<path d="M487.579 149.953C487.579 149.953 457.912 176.695 458.071 209.536C458.23 242.377 488.127 268.903 488.127 268.903C488.127 268.903 517.794 242.161 517.635 209.32C517.476 176.479 487.579 149.953 487.579 149.953Z" fill="white"/>
<path d="M445.289 229.222C445.672 228.847 446.026 228.449 446.349 228.033C448.506 225.177 450.345 221.023 448.966 217.611C448.673 216.798 448.187 216.047 447.54 215.408C446.893 214.77 446.099 214.258 445.21 213.905C444.321 213.552 443.356 213.368 442.38 213.362C441.403 213.357 440.437 213.532 439.543 213.875C435.512 215.542 433.549 221.178 433.125 225.794C431.516 225.47 430.066 225.223 428.811 225.038C428.28 224.003 427.75 222.938 427.202 221.95C426.654 220.962 426.212 219.757 425.699 218.646C424.992 217.009 424.355 215.28 423.701 213.566C426.053 212.639 432.895 209.86 435.441 207.39C437.987 204.919 440.603 200.982 439.825 197.431C439.677 196.588 439.327 195.782 438.799 195.066C438.27 194.349 437.574 193.738 436.757 193.272C435.94 192.805 435.019 192.495 434.055 192.36C433.091 192.226 432.105 192.27 431.162 192.49C425.522 194.034 422.216 202.742 422.092 207.328C422.092 207.483 422.092 208.455 422.305 209.598C421.739 207.899 421.155 206.216 420.66 204.487C419.211 199.562 417.902 194.513 416.576 189.464C416.311 188.399 416.011 187.364 415.728 186.376C417.708 185.619 425.133 182.655 427.803 180.077C430.473 177.498 432.983 173.669 432.205 170.118C432.055 169.274 431.703 168.468 431.172 167.752C430.642 167.035 429.945 166.424 429.126 165.958C428.307 165.492 427.385 165.181 426.42 165.047C425.455 164.912 424.469 164.957 423.525 165.177C417.902 166.721 414.596 175.429 414.472 180.015C414.472 180.169 414.578 181.327 414.72 182.624C413.942 179.891 413.146 177.174 412.262 174.487C410.761 169.885 408.906 165.377 406.711 160.993C407.418 160.73 416.205 157.411 419.175 154.539C421.81 152.007 424.338 148.131 423.56 144.58C423.412 143.737 423.062 142.931 422.533 142.215C422.004 141.498 421.309 140.887 420.491 140.421C419.674 139.954 418.753 139.644 417.789 139.509C416.825 139.375 415.84 139.419 414.897 139.639C409.274 141.183 405.951 149.891 405.845 154.477C405.845 154.801 406.269 158.985 406.481 160.483V160.329C404.214 156.063 401.51 151.986 398.401 148.147C395.678 144.7 392.726 141.395 389.561 138.25C386.644 135.316 383.762 132.768 381.199 130.53C379.784 129.341 378.476 128.26 377.256 127.272H377.38C377.486 127.272 374.622 121.543 374.392 121.204C371.775 117.236 364.014 110.936 358.268 111.94C357.32 112.146 356.433 112.524 355.664 113.048C354.895 113.573 354.26 114.233 353.802 114.986C353.343 115.738 353.071 116.567 353.003 117.417C352.935 118.268 353.072 119.121 353.406 119.922C354.696 123.365 359.046 125.681 362.758 126.793C366.471 127.905 374.834 127.395 376.902 127.225C378.158 128.275 379.484 129.418 380.916 130.684C383.426 132.954 386.22 135.548 389.084 138.527C389.826 139.315 390.604 140.21 391.382 141.044C389.738 139.855 387.475 138.265 387.227 138.126C382.807 135.671 372.588 133.201 368.08 136.474C367.344 137.034 366.751 137.724 366.341 138.498C365.931 139.272 365.713 140.113 365.701 140.966C365.69 141.819 365.885 142.664 366.273 143.447C366.662 144.229 367.235 144.931 367.956 145.506C370.909 148.054 376.018 148.347 379.89 147.853C383.762 147.359 391.152 143.391 392.726 142.511C394.406 144.395 396.085 146.371 397.694 148.517C400.651 152.373 403.213 156.45 405.349 160.699C405.473 160.946 405.562 161.209 405.685 161.456C404.996 160.746 400.859 157.117 400.541 156.824C396.456 153.952 386.626 150.509 381.711 153.334C380.91 153.822 380.236 154.452 379.733 155.183C379.23 155.913 378.908 156.729 378.79 157.575C378.671 158.421 378.759 159.28 379.046 160.095C379.333 160.91 379.813 161.663 380.456 162.305C383.09 165.115 388.111 165.903 392.019 165.779C396.545 165.64 405.42 161.718 405.756 161.579C407.76 165.863 409.437 170.258 410.777 174.734C411.785 178.038 412.669 181.435 413.5 184.832C412.581 183.937 408.744 180.555 408.426 180.339C404.342 177.467 394.512 174.024 389.597 176.85C388.796 177.337 388.122 177.967 387.618 178.698C387.115 179.429 386.794 180.244 386.675 181.09C386.557 181.937 386.644 182.795 386.931 183.61C387.218 184.425 387.699 185.178 388.341 185.82C390.976 188.63 395.997 189.418 399.904 189.294C404.324 189.155 412.846 185.434 413.571 185.125C413.96 186.669 414.331 188.213 414.702 189.757C415.904 194.822 417.089 199.917 418.415 204.904C418.875 206.633 419.405 208.316 419.935 210.015C418.486 208.702 415.816 206.355 415.569 206.17C411.484 203.314 401.637 199.871 396.739 202.681C395.938 203.169 395.264 203.798 394.761 204.529C394.258 205.26 393.936 206.075 393.818 206.921C393.699 207.768 393.787 208.626 394.074 209.441C394.361 210.256 394.841 211.009 395.484 211.651C398.101 214.461 403.139 215.264 407.047 215.125C410.954 214.986 418.238 212.037 420.271 211.142C421.155 213.952 422.039 216.731 423.206 219.418C423.701 220.576 424.126 221.78 424.674 222.861L425.505 224.575L424.373 224.482C424.373 224.482 424.373 226.026 424.462 228.697C420.148 226.011 413.854 223.695 409.876 225.331C409.001 225.708 408.227 226.241 407.604 226.896C406.981 227.551 406.523 228.314 406.259 229.134C405.996 229.953 405.933 230.813 406.075 231.655C406.216 232.498 406.56 233.305 407.082 234.024C407.346 234.411 407.648 234.778 407.984 235.12C408.767 239.078 410.69 242.797 413.571 245.928C413.783 246.16 416.718 248.522 418.256 249.695C416.771 249.001 415.303 248.306 413.783 247.565C411.573 246.484 409.292 245.295 407.064 244.153L403.635 242.253C402.468 241.62 401.425 240.91 400.293 240.231C398.666 239.196 397.04 238.069 395.431 236.942C396.81 235.058 400.735 229.438 401.318 226.134C401.902 222.83 401.566 218.291 398.684 215.697C398.031 215.062 397.232 214.555 396.34 214.207C395.447 213.86 394.481 213.68 393.504 213.68C392.527 213.68 391.561 213.86 390.668 214.207C389.776 214.555 388.977 215.062 388.324 215.697C384.558 219.634 387.351 228.558 390.092 232.434C390.092 232.557 390.87 233.329 391.701 234.225C390.162 233.082 388.607 231.955 387.086 230.751C382.772 227.354 378.494 223.756 374.197 220.19L371.492 217.966C372.659 216.422 376.991 210.246 377.592 206.896C378.193 203.545 377.857 199.052 374.958 196.458C374.304 195.826 373.507 195.321 372.616 194.975C371.725 194.629 370.761 194.451 369.786 194.451C368.811 194.451 367.847 194.629 366.956 194.975C366.066 195.321 365.268 195.826 364.615 196.458C360.849 200.396 363.625 209.32 366.383 213.195C366.489 213.334 367.32 214.245 368.239 215.264C365.888 213.35 363.483 211.466 361.061 209.66C356.899 206.546 352.505 203.678 347.907 201.075C348.331 200.519 353.565 193.509 354.219 189.696C354.82 186.299 354.484 181.852 351.602 179.258C350.94 178.636 350.139 178.14 349.247 177.801C348.356 177.462 347.394 177.287 346.422 177.287C345.45 177.287 344.488 177.462 343.597 177.801C342.705 178.14 341.904 178.636 341.242 179.258C337.476 183.195 340.269 192.12 343.01 195.995C343.204 196.273 346.21 199.546 347.341 200.627L347.182 200.535C342.594 198.078 337.767 195.98 332.755 194.266C328.286 192.717 323.717 191.397 319.071 190.313C314.775 189.263 310.761 188.538 307.208 187.92C305.298 187.596 303.53 187.333 301.904 187.102H302.01C302.01 187.102 296.105 183.643 295.698 183.473C290.995 181.435 280.546 179.907 276.445 183.581C275.784 184.209 275.281 184.951 274.97 185.758C274.658 186.566 274.545 187.422 274.636 188.271C274.728 189.12 275.023 189.942 275.502 190.685C275.981 191.428 276.633 192.075 277.417 192.583C280.67 194.837 285.762 194.667 289.563 193.818C293.364 192.969 300.012 188.476 301.639 187.364C303.407 187.627 305.175 187.935 307.172 188.306C310.708 188.985 314.669 189.85 318.93 190.915C320.061 191.209 321.263 191.579 322.466 191.904C320.344 191.703 317.445 191.471 317.162 191.471C311.858 191.471 301.833 194.405 300.136 199.315C299.878 200.137 299.821 200.998 299.969 201.84C300.117 202.683 300.467 203.489 300.996 204.206C301.525 204.923 302.22 205.534 303.038 206C303.855 206.466 304.776 206.777 305.74 206.911C309.807 207.606 314.262 205.367 317.179 203.113C320.097 200.859 323.756 193.973 324.517 192.475C327.098 193.247 329.821 194.019 332.437 195.1C337.36 196.883 342.093 199.043 346.581 201.554C346.829 201.708 347.076 201.893 347.341 202.032C346.316 201.785 340.57 200.735 340.163 200.704C334.859 200.272 324.552 202.14 322.253 206.88C321.896 207.673 321.733 208.523 321.775 209.374C321.818 210.225 322.064 211.06 322.499 211.822C322.934 212.585 323.548 213.259 324.301 213.802C325.053 214.344 325.928 214.743 326.868 214.971C330.828 216.052 335.531 214.276 338.714 212.3C342.391 209.999 347.324 202.449 347.554 202.171C351.921 204.784 356.091 207.642 360.036 210.725C362.988 212.995 365.852 215.357 368.699 217.843C367.355 217.534 362.016 216.561 361.627 216.53C356.323 216.113 346.033 217.982 343.717 222.706C343.359 223.499 343.196 224.349 343.239 225.2C343.281 226.051 343.528 226.886 343.963 227.648C344.398 228.411 345.012 229.085 345.764 229.628C346.517 230.17 347.391 230.569 348.331 230.797C352.292 231.878 356.995 230.118 360.177 228.126C363.713 225.887 368.54 218.661 369.017 218.059L372.907 221.379C377.115 225.038 381.305 228.713 385.566 232.187C387.051 233.406 388.553 234.564 390.056 235.722C388.041 235.321 384.328 234.641 383.992 234.626C378.776 234.194 368.398 236.062 366.082 240.802C365.725 241.596 365.563 242.447 365.606 243.299C365.65 244.151 365.898 244.985 366.335 245.748C366.771 246.511 367.387 247.186 368.142 247.727C368.896 248.269 369.773 248.666 370.714 248.893C374.675 249.958 379.36 248.198 382.542 246.221C385.725 244.245 389.915 238.224 391.064 236.525C393.575 238.44 396.121 240.293 398.737 242.006C399.886 242.732 401 243.55 402.132 244.168L405.509 246.129C407.86 247.41 410.052 248.599 412.28 249.742L415.569 251.394C413.588 250.715 410.424 249.695 410.123 249.634C405.031 248.522 394.459 248.985 391.347 253.355C390.858 254.091 390.551 254.909 390.446 255.756C390.342 256.602 390.442 257.459 390.74 258.269C391.038 259.08 391.528 259.827 392.178 260.462C392.828 261.097 393.623 261.605 394.512 261.955C398.242 263.499 403.193 262.418 406.675 260.874C410.53 259.176 416.329 252.907 417.036 252.135C419.741 253.478 422.34 254.76 424.868 255.918C431.534 259.006 437.244 261.523 441.841 263.36C456.498 274.43 477.201 275.712 477.201 275.712C477.201 275.712 478.297 254.096 463.746 239.953C458.577 235.229 452.273 231.565 445.289 229.222ZM419.122 250.251C419.582 249.356 423.083 242.531 423.33 238.64C424.143 238.517 424.974 238.363 425.77 238.208C427.254 245.021 430.349 251.49 434.857 257.199C432.188 256.088 429.306 254.868 426.247 253.509C423.967 252.49 421.58 251.394 419.122 250.251Z" fill="white"/>
<path d="M553.384 225.084C553.384 225.084 528.632 225.748 513.551 239.474C498.47 253.2 498.576 274.832 498.576 274.832C498.576 274.832 523.328 274.168 538.409 260.442C553.49 246.715 553.384 225.084 553.384 225.084Z" fill="white"/>
</g>
<path d="M488.799 238.996L513.056 219.943L512.03 218.924L488.781 237.174L488.657 212.207L488.781 212.284L509.308 186.067L508.035 185.295L488.64 210.046L488.357 149.953L486.801 149.969L486.995 190.746L471.543 179.073L470.535 180.092L487.013 192.552L487.155 221.703L463.729 203.623L462.703 204.626L487.155 223.525L487.296 250.082L469.687 238.023L468.732 239.088L487.296 251.811L487.384 268.903H488.94L488.781 238.98L488.799 238.996Z" fill="white"/>
<path d="M466.434 246.345L464.896 246.191L462.933 261.276L452.52 251.116H452.538L449.886 232.851L448.347 233.021L450.717 249.356L424.815 224.065L423.648 224.976L441.222 242.13L430.102 242.254L430.119 243.612L442.601 243.474L454.924 255.501L437.527 255.517V256.875L456.321 256.86L467.513 267.792L455.243 268.44L455.349 269.799L468.839 269.088L476.299 276.376L477.466 275.465L464.33 262.635L466.434 246.345Z" fill="white"/>
<path d="M525.078 251.718L545.729 248.059L545.428 246.731L526.952 250.004L553.897 225.563L552.765 224.621L534.484 241.204L533.529 231.523L531.974 231.646L533.052 242.501L520.234 254.127L518.926 238.98L517.37 239.088L518.784 255.439L507.133 266.016L505.489 255.378L503.951 255.563L505.754 267.266L497.993 274.307L499.124 275.249L512.791 262.851L531.549 263.484L531.62 262.125L514.241 261.538L525.078 251.703V251.718Z" fill="white"/>
<path d="M287.441 461.177C288.838 467.245 305.528 469.685 305.528 469.685L317.904 463.509C323.084 501.491 327.681 532.495 329.219 535.197C333.392 542.484 363.996 532.773 366.771 520.621C367.903 515.711 362.422 482.593 355.509 444.888L398.755 423.457C398.755 423.457 400.646 418.038 387.192 420.138C382.489 420.879 368.769 425.341 352.963 431.116C343.239 379.083 331.995 323.869 331.995 323.869C331.995 323.869 479.411 463.54 486.377 463.54C493.343 463.54 503.067 462.335 498.894 451.404C494.722 440.472 331.995 304.446 331.995 304.446C331.995 304.446 304.184 303.226 298.633 314.158C298.633 314.158 307.314 384.441 315.517 445.768C299.234 452.701 286.911 458.861 287.441 461.177Z" fill="#263238"/>
<path d="M616.254 425.372C616.071 419.086 615.356 412.821 614.115 406.627C611.655 394.236 607.134 382.225 600.696 370.976C597.551 365.401 593.952 360.03 589.928 354.903C585.991 349.797 581.68 344.918 577.022 340.297C572.444 335.687 567.55 331.325 562.365 327.235C552.126 319.175 541.045 311.969 529.268 305.712C482.487 280.899 428.492 269.52 375.028 270.2C361.658 270.523 348.339 271.773 335.195 273.936C322.036 276.048 309.17 279.371 296.812 283.849C284.527 288.349 272.929 294.163 262.283 301.157C251.756 308.038 242.149 315.931 233.641 324.687C233.489 324.83 233.405 325.018 233.405 325.212C233.405 325.407 233.489 325.594 233.641 325.737C233.723 325.81 233.821 325.867 233.929 325.906C234.036 325.945 234.152 325.966 234.269 325.966C234.385 325.966 234.501 325.945 234.609 325.906C234.716 325.867 234.814 325.81 234.896 325.737C243.807 317.584 253.741 310.333 264.51 304.121C275.192 297.801 286.724 292.651 298.845 288.789C323.12 281.069 349.127 278.151 374.869 278.367C400.723 278.706 426.41 282.06 451.246 288.342C476.113 294.508 499.83 303.774 521.666 315.856C543.289 328.038 562.79 343.447 576.934 362.176C580.491 366.844 583.658 371.731 586.41 376.797C591.993 386.891 595.859 397.643 597.884 408.712C598.9 414.243 599.449 419.832 599.529 425.433C599.594 431.031 599.251 436.626 598.503 442.186C598.026 444.95 597.584 447.713 596.965 450.462L595.887 454.538L595.356 456.576L594.667 458.583C591.073 469.33 585.656 479.547 578.596 488.892C564.452 507.574 544.349 522.536 522.108 533.668C499.647 544.744 475.263 552.537 449.92 556.735C424.575 561.027 398.683 562.326 372.942 560.595C369.706 560.472 366.506 560.086 363.306 559.839C361.697 559.684 360.088 559.561 358.497 559.391L353.724 558.758C350.541 558.295 347.341 557.986 344.194 557.399L334.824 555.84C333.243 555.564 331.679 555.219 330.138 554.805L325.489 553.678C322.377 552.921 319.265 552.211 316.242 551.238L307.101 548.506L298.138 545.34C296.653 544.8 295.15 544.29 293.682 543.719L289.315 541.944C286.416 540.708 283.463 539.581 280.617 538.269C274.977 535.536 269.231 532.973 263.856 529.854L259.772 527.615L257.721 526.488L255.759 525.268L247.891 520.328C245.257 518.691 242.835 516.823 240.306 515.078L236.558 512.422C235.285 511.558 234.154 510.539 233.022 509.612L225.95 503.899L219.232 497.77C218.136 496.735 216.986 495.763 215.943 494.682L212.849 491.439L209.755 488.197C208.748 487.101 207.651 486.066 206.767 484.893L201.145 478.037L199.731 476.324L198.476 474.517L195.894 470.92C192.564 466.111 189.513 461.159 186.754 456.082C181.356 445.877 177.602 435.07 175.598 423.967C173.726 412.843 173.792 401.537 175.792 390.431C177.81 379.303 181.539 368.464 186.877 358.208C192.259 347.968 198.892 338.267 206.661 329.273C222.358 311.306 241.363 295.742 262.901 283.215C263.092 283.108 263.227 282.939 263.276 282.746C263.326 282.552 263.286 282.349 263.167 282.181C263.046 282.008 262.852 281.884 262.627 281.835C262.402 281.786 262.164 281.816 261.964 281.919C250.688 287.767 239.948 294.369 229.84 301.666C219.687 309.079 210.331 317.286 201.888 326.185C193.294 335.199 185.908 345.041 179.876 355.521C173.73 366.182 169.263 377.52 166.598 389.227C163.999 401.139 163.499 413.327 165.113 425.372C166.861 437.446 170.515 449.251 175.969 460.451C181.479 471.499 188.325 482.001 196.389 491.779C197.326 493.045 198.458 494.172 199.501 495.361L202.719 498.897L205.919 502.417C207.015 503.575 208.217 504.656 209.349 505.768L216.315 512.407L223.723 518.583C224.978 519.602 226.162 520.698 227.471 521.671L231.396 524.574C234.03 526.473 236.558 528.511 239.299 530.302L247.52 535.768L249.588 537.111L251.71 538.346L256.006 540.816C261.628 544.26 267.71 546.992 273.686 550.08C276.692 551.501 279.804 552.752 282.862 554.11L287.477 556.087C289.032 556.72 290.624 557.275 292.197 557.862L301.674 561.352L311.38 564.44C314.598 565.52 317.904 566.323 321.21 567.173L326.16 568.439C327.805 568.871 329.467 569.288 331.164 569.597L341.242 571.619C344.618 572.299 348.066 572.685 351.478 573.163L356.605 573.904C358.373 574.121 359.982 574.259 361.662 574.445C365.039 574.754 368.416 575.201 371.81 575.387C385.381 576.475 399.026 576.692 412.633 576.035C426.283 575.427 439.869 574.008 453.297 571.789C480.545 567.413 506.785 559.156 530.966 547.348C555.099 535.165 577.146 518.598 593.058 497.476C601.006 486.826 607.079 475.193 611.074 462.968L611.834 460.683L612.453 458.351L613.637 453.719C614.327 450.631 614.822 447.42 615.405 444.286C616.203 438.007 616.487 431.686 616.254 425.372Z" fill="#263238"/>
<path d="M372.889 323.869C373.386 324.789 374.171 325.567 375.154 326.114C376.136 326.66 377.276 326.953 378.44 326.957C379.385 326.963 380.318 326.772 381.163 326.401L405.915 315.794L422.128 327.837C422.741 328.329 423.461 328.707 424.246 328.949C425.031 329.192 425.863 329.294 426.694 329.249C427.525 329.204 428.337 329.013 429.081 328.687C429.825 328.362 430.487 327.909 431.026 327.355C431.565 326.801 431.97 326.158 432.218 325.464C432.466 324.77 432.551 324.039 432.468 323.316C432.385 322.593 432.135 321.892 431.735 321.255C431.334 320.617 430.791 320.057 430.137 319.608L418.008 310.591L431.675 304.708C432.412 304.388 433.07 303.944 433.61 303.402C434.151 302.859 434.564 302.229 434.826 301.547C435.088 300.866 435.193 300.146 435.136 299.428C435.08 298.711 434.862 298.01 434.495 297.367C434.128 296.723 433.619 296.148 432.998 295.676C432.377 295.204 431.656 294.843 430.875 294.615C430.095 294.386 429.27 294.294 428.449 294.343C427.627 294.393 426.825 294.583 426.088 294.904L407.612 302.855L394.635 293.205C393.386 292.276 391.764 291.818 390.128 291.932C388.492 292.047 386.974 292.724 385.91 293.815C384.846 294.907 384.321 296.322 384.452 297.751C384.583 299.18 385.359 300.505 386.608 301.435L395.448 308.059L375.576 316.597C374.116 317.25 373.012 318.383 372.508 319.747C372.004 321.111 372.141 322.594 372.889 323.869Z" fill="#263238"/>
<path opacity="0.3" d="M758.472 646.936L642.155 602.561C628.011 592.046 611.268 579.911 608.563 579.308C603.648 578.228 606.106 572.87 614.716 559.977C623.326 547.085 562.684 522.397 547.178 523.709C534.802 524.774 520.057 522.597 514.735 521.702C519.173 510.199 523.752 498.789 523.752 498.789L463.481 475.752L415.48 411.8L400.487 415.969C400.487 415.969 421.491 457.842 446.119 505.783C437.032 503.251 418.556 499.808 416.718 512.716C414.26 529.885 429.005 542.777 443.75 542.777C451.883 542.777 459.662 542.453 464.966 542.16C491.858 593.837 518.006 642.288 522.462 644.759C532.309 650.132 566.662 657.636 567.952 650.132C569.243 642.628 533.529 587.862 533.529 587.862C533.529 587.862 722.847 653.343 742.56 653.343C762.273 653.343 758.472 646.936 758.472 646.936ZM579.02 554.573C579.02 554.573 573.539 568.331 574.335 576.653L542.051 564.301L579.02 554.573ZM491.734 497.677L487.42 507.744L477.554 494.589L491.734 497.677Z" fill="black"/>
<path d="M684.923 314.28C684.923 314.28 688.76 307.147 686.355 301.681C683.951 296.216 639.715 287.399 639.715 287.399C639.715 287.399 629.602 287.399 630.08 292.433C630.557 297.466 667.119 316.797 670.001 318.48C672.883 320.163 683.951 323.946 684.923 314.28Z" fill="white" stroke="#263238" stroke-linecap="round" stroke-linejoin="round"/>
<path d="M652.215 310.081C653.583 307.965 655.446 306.124 657.681 304.677C659.917 303.23 662.476 302.209 665.192 301.682C674.333 299.999 686.408 305.464 687.805 314.281C689.201 323.097 681.546 327.297 676.737 327.297C671.928 327.297 667.596 321.414 667.596 321.414C667.596 321.414 652.215 316.38 652.215 310.081Z" fill="white" stroke="#263238" stroke-linecap="round" stroke-linejoin="round"/>
<path d="M640.369 351.537C642.218 355.397 645.032 358.846 648.605 361.633C652.178 364.419 656.42 366.472 661.02 367.641C677.25 372.15 707.483 365.711 725.18 367.641L738.44 379.885L717.808 391.465C702.565 387.065 687.053 383.41 671.345 380.518C646.84 376.118 631.529 356.046 631.529 356.046L640.369 351.537Z" fill="#263238"/>
<path d="M410.3 410.009L400.505 415.969L405.19 418.933L412.863 416.71L410.3 410.009Z" fill="#263238" stroke="#263238" stroke-linecap="round" stroke-linejoin="round"/>
<path d="M632.82 266.695C632.82 266.695 628.612 265.352 624.793 263.684C620.975 262.017 625.165 269.69 626.703 270.03C628.241 270.37 632.007 271.034 632.007 271.034L632.82 266.695Z" fill="white" stroke="#263238" stroke-linecap="round" stroke-linejoin="round"/>
<path d="M427.608 386.864L408.62 408.897C407.963 409.655 407.561 410.558 407.461 411.505C407.361 412.452 407.567 413.404 408.054 414.254C408.617 415.238 409.529 416.037 410.653 416.532C411.778 417.027 413.055 417.192 414.295 417.003L441.841 412.818L739.802 263.22C743.21 261.487 746.186 259.174 748.552 256.418C750.918 253.661 752.626 250.519 753.576 247.175C754.525 243.832 754.697 240.356 754.08 236.954C753.463 233.552 752.071 230.292 749.985 227.369C747.914 224.472 745.202 221.964 742.008 219.992C738.815 218.02 735.204 216.623 731.385 215.883C727.567 215.143 723.618 215.074 719.77 215.681C715.921 216.287 712.249 217.558 708.968 219.417L427.608 386.864Z" fill="#3A6F6D" stroke="#263238" stroke-linecap="round" stroke-linejoin="round"/>
<path d="M708.968 219.418L629.549 267.282C630.292 279.294 636.197 295.197 660.26 302.222L739.82 263.174C743.311 261.493 746.376 259.211 748.828 256.465C751.279 253.719 753.067 250.566 754.083 247.199C755.098 243.832 755.32 240.32 754.736 236.875C754.151 233.431 752.771 230.126 750.681 227.161C748.59 224.196 745.832 221.632 742.573 219.626C739.315 217.619 735.623 216.211 731.723 215.487C727.823 214.763 723.795 214.738 719.884 215.414C715.972 216.089 712.259 217.451 708.968 219.418Z" fill="#263238" stroke="#263238" stroke-linecap="round" stroke-linejoin="round"/>
<path d="M408.054 414.255C408.618 415.238 409.529 416.037 410.653 416.532C411.778 417.027 413.055 417.192 414.295 417.003L441.841 412.819C419.564 405.253 427.697 386.864 427.697 386.864L408.708 408.897C408.037 409.648 407.62 410.547 407.504 411.494C407.388 412.441 407.579 413.398 408.054 414.255Z" fill="#3A6F6D" stroke="#263238" stroke-linecap="round" stroke-linejoin="round"/>
<path d="M608.386 274.368C608.386 274.368 604.108 274.368 604.108 276.067C604.108 277.765 602.994 283.787 605.469 283.617C607.944 283.447 607.715 279.649 607.927 278.321C608.139 276.993 608.386 274.368 608.386 274.368Z" fill="white" stroke="#263238" stroke-linecap="round" stroke-linejoin="round"/>
<path d="M613.072 268.208C613.072 268.208 609.235 267.189 608.369 269.242C607.503 271.296 606.601 281.039 609.235 280.792C611.87 280.544 612.471 271.744 613.072 268.208Z" fill="white" stroke="#263238" stroke-linecap="round" stroke-linejoin="round"/>
<path d="M618.941 268.733C618.941 268.733 614.539 265.398 613.071 268.208C611.604 271.018 611.303 279.016 613.071 279.016C614.839 279.016 617.474 275.681 618.057 273.89C618.498 272.192 618.793 270.469 618.941 268.733Z" fill="white" stroke="#263238" stroke-linecap="round" stroke-linejoin="round"/>
<path d="M625.112 270.199C625.112 270.199 619.525 266.092 618.641 266.864C617.757 267.636 614.238 275.542 616.873 277.132C619.507 278.722 622.866 271.635 622.866 271.635L625.112 270.199Z" fill="white" stroke="#263238" stroke-linecap="round" stroke-linejoin="round"/>
<path d="M554.993 308.275C554.993 308.275 555.612 316.52 558.122 318.435C559.638 319.589 561.012 320.878 562.224 322.279C562.561 324.373 562.768 326.481 562.843 328.594C562.843 331.065 564.735 330.802 566.379 330.802C568.023 330.802 570.781 335.434 572.355 337.657C574.069 339.688 576.369 341.286 579.02 342.289C581.849 343.648 586.552 338.445 586.552 338.445L592.775 347.477L615.105 334.847L604.108 316.18C603.459 309.704 601.202 303.429 597.496 297.791C591.219 287.91 582.715 282.351 568.571 285.98C554.427 289.608 554.993 308.275 554.993 308.275Z" fill="white" stroke="#263238" stroke-linecap="round" stroke-linejoin="round"/>
<path d="M590.512 342.058L580.947 333.658" stroke="#263238" stroke-linecap="round" stroke-linejoin="round"/>
<path d="M573.999 317.909C573.072 318.441 571.987 318.725 570.878 318.725C569.769 318.725 568.684 318.441 567.758 317.909C565.958 316.849 564.502 315.4 563.532 313.704C562.563 312.008 562.112 310.121 562.224 308.228C562.224 303.982 555.983 305.804 555.983 305.804C555.983 305.804 549.035 312.459 544.19 310.035C539.346 307.61 536.552 302.778 550.431 287.631C564.31 272.484 577.482 273.102 588.567 279.155C599.652 285.207 604.037 316.211 604.037 316.211C604.037 316.211 603.825 322.124 594.808 323.931C585.791 325.737 573.999 323.961 573.999 317.909Z" fill="#263238" stroke="#263238" stroke-linecap="round" stroke-linejoin="round"/>
<path d="M572.284 323.113C572.284 323.113 569.137 312.675 574.158 314.049C579.179 315.424 582.025 324.749 581.707 325.846C581.389 326.942 578.878 327.498 577.623 327.22" fill="white"/>
<path d="M572.284 323.113C572.284 323.113 569.137 312.675 574.158 314.049C579.179 315.424 582.025 324.749 581.707 325.846C581.389 326.942 578.878 327.498 577.623 327.22" stroke="#263238" stroke-linecap="round" stroke-linejoin="round"/>
<path d="M608.616 326.895C602.75 329.766 597.146 333.029 591.855 336.653C586.551 340.776 581.795 353.128 581.795 353.128C581.795 353.128 614.185 333.905 619.843 331.157C625.5 328.409 626.756 327.05 626.756 327.05C626.756 327.05 614.91 325.521 608.616 326.895Z" fill="white" stroke="#263238" stroke-linecap="round" stroke-linejoin="round"/>
<path d="M528.826 400.698C528.826 400.698 519.668 396.993 509.096 392.067C498.523 387.142 487.243 381.615 487.243 381.615C484.202 381.289 481.126 381.289 478.085 381.615C472.756 382.775 467.337 383.596 461.872 384.07C458.336 384.07 456.232 387.158 458.336 388.377C460.44 389.597 471.738 388.377 471.738 388.377L454.058 395.773C454.058 395.773 451.954 399.463 456.886 399.463C461.819 399.463 463.958 398.846 469.563 399.463C475.168 400.081 486.483 393.92 486.483 393.92C486.483 393.92 516.327 423.951 523.257 424.322C530.188 424.692 544.349 410.549 528.826 400.698Z" fill="white" stroke="#263238" stroke-linecap="round" stroke-linejoin="round"/>
<path d="M538.232 394.924C538.232 394.924 522.833 398.707 519.951 404.589C517.069 410.472 517.546 419.288 523.31 424.322C529.074 429.355 531.496 430.621 537.737 428.521C543.978 426.421 545.445 423.071 545.923 419.705C546.4 416.339 549.848 405.006 538.232 394.924Z" fill="white" stroke="#263238" stroke-linecap="round" stroke-linejoin="round"/>
<path d="M744.169 631.31C742.93 633.074 741.808 634.899 740.809 636.776C740.332 638.042 729.742 639.293 731.191 643.492C732.641 647.692 743.691 651.058 748.995 651.475C754.299 651.892 764.907 645.592 766.781 643.909C767.913 642.921 769.61 636.405 768.708 631.31C768.116 628.939 766.782 626.758 764.854 625.011C764.854 625.011 755.714 612.828 744.169 631.31Z" fill="white" stroke="#263238" stroke-linecap="round" stroke-linejoin="round"/>
<path d="M768.709 631.31C768.214 629.183 767.086 627.207 765.438 625.582C763.446 625.592 761.478 625.958 759.654 626.656C757.83 627.354 756.188 628.371 754.83 629.643C750.021 634.676 752.425 646.009 746.644 647.692C742.348 648.943 734.834 644.357 731.298 641.948C731.101 642.449 731.101 642.992 731.298 643.492C732.748 647.692 743.798 651.058 749.102 651.475C754.406 651.892 765.014 645.592 766.888 643.909C767.913 642.921 769.61 636.405 768.709 631.31Z" fill="white" stroke="#263238" stroke-linecap="round" stroke-linejoin="round"/>
<path d="M756.209 634.259C754.282 641.809 756.686 646.858 748.996 651.475C754.3 651.892 764.908 645.592 766.782 643.909C767.913 642.921 769.61 636.405 768.709 631.31C768.502 630.262 768.102 629.251 767.524 628.315H766.782C766.782 628.315 758.118 626.694 756.209 634.259Z" fill="#263238" stroke="#263238" stroke-linecap="round" stroke-linejoin="round"/>
<path d="M727.09 575.449C719.877 562.85 690.687 528.913 690.687 528.913C690.687 528.913 677.232 455.434 676.737 450.369C675.818 440.673 668.693 426.036 668.693 426.036C668.693 426.036 645.479 421.805 601.226 444.487L601.703 457.086L632.555 490.313C634.04 489.247 634.906 488.599 634.906 488.599C634.906 488.599 654.62 531.831 658.951 540.261C663.283 548.691 684.658 578.537 695.266 584.713C701.171 588.156 744.169 631.311 744.169 631.311C744.169 631.311 752.355 625.011 757.641 625.011H764.854C764.854 625.011 734.303 588.048 727.09 575.449Z" fill="#263238" stroke="#263238" stroke-linecap="round" stroke-linejoin="round"/>
<g opacity="0.35">
<path d="M735.063 613.57C740.933 620.04 744.805 624.872 744.805 624.872" stroke="white" stroke-linecap="round" stroke-linejoin="round"/>
<path d="M647.229 493.076C647.229 493.076 654.849 510.384 664.768 530.348C674.686 550.312 686.868 574.291 705.166 586.272C712.893 591.321 721.078 598.995 728.15 606.159" stroke="white" stroke-linecap="round" stroke-linejoin="round"/>
<path d="M668.092 475.567L634.906 488.583L670.107 487.086" stroke="white" stroke-linecap="round" stroke-linejoin="round"/>
</g>
<path d="M662.31 307.147C654.142 307.981 632.979 320.58 631.529 321.846C630.079 323.112 624.316 326.046 621.911 327.729C621.911 327.729 572.407 354.61 568.04 357.065C563.673 359.52 555.063 364.615 555.541 366.329C556.018 368.043 530.046 404.929 530.046 404.929C530.046 404.929 522.355 413.745 529.569 421.728C536.782 429.71 543.518 424.244 546.877 422.577C550.237 420.909 576.704 399.046 576.704 399.046L601.12 449.998C601.12 449.998 634.924 430.204 670.991 431.47L646.946 349.144C646.946 349.144 680.132 327.297 681.086 319.808C682.041 312.32 670.496 306.298 662.31 307.147Z" fill="white"/>
<mask id="mask0_565_2512" style="mask-type:luminance" maskUnits="userSpaceOnUse" x="526" y="307" width="156" height="143">
<path d="M662.31 307.147C654.142 307.981 632.979 320.58 631.529 321.846C630.079 323.112 624.316 326.046 621.911 327.729C621.911 327.729 572.407 354.61 568.04 357.065C563.673 359.52 555.063 364.615 555.541 366.329C556.018 368.043 530.046 404.929 530.046 404.929C530.046 404.929 522.355 413.745 529.569 421.728C536.782 429.71 543.518 424.244 546.877 422.577C550.237 420.909 576.704 399.046 576.704 399.046L601.12 449.998C601.12 449.998 634.924 430.204 670.991 431.47L646.946 349.144C646.946 349.144 680.132 327.297 681.086 319.808C682.041 312.32 670.496 306.298 662.31 307.147Z" fill="white"/>
</mask>
<g mask="url(#mask0_565_2512)">
<path d="M662.31 307.147C659.039 307.472 653.682 309.695 648.343 312.335C649.561 312.131 650.821 312.245 651.966 312.662C653.11 313.079 654.089 313.782 654.779 314.682C658.757 319.144 650.235 333.504 650.235 333.504C650.235 333.504 646.699 313.648 646.84 319.608C646.982 325.567 645.072 343.879 645.072 343.879C645.072 343.879 633.722 331.99 634.287 334.97C634.853 337.95 642.226 365.68 646.77 376.087C651.313 386.494 643.357 415.722 638.831 424.152C634.305 432.582 637.063 388.485 632.024 399.371C626.986 410.256 609.96 440.534 605.982 443.514C602.004 446.493 607.255 403.107 608.669 397.456C606.901 402.181 595.215 432.103 595.215 432.103L579.303 396.437C579.303 396.437 552.075 377.106 554.904 380.58C557.733 384.054 564.558 394.955 564.558 394.955C564.558 394.955 548.097 391.975 550.944 392.963C553.79 393.951 566.255 399.401 566.255 399.401C566.255 399.401 540.743 415.336 533.37 417.25C531.388 417.76 529.349 418.086 527.288 418.223C527.82 419.517 528.59 420.727 529.569 421.805C536.782 429.787 543.518 424.322 546.878 422.654C550.237 420.987 576.704 399.124 576.704 399.124L601.12 449.998C601.12 449.998 634.924 430.204 670.991 431.47L646.946 349.144C646.946 349.144 680.132 327.297 681.086 319.808C682.041 312.32 670.496 306.298 662.31 307.147Z" fill="#3A6F6D"/>
<path opacity="0.5" d="M662.31 307.147C659.039 307.472 653.682 309.695 648.343 312.335C649.561 312.131 650.821 312.245 651.966 312.662C653.11 313.079 654.089 313.782 654.779 314.682C658.757 319.144 650.235 333.504 650.235 333.504C650.235 333.504 646.699 313.648 646.84 319.608C646.982 325.567 645.072 343.879 645.072 343.879C645.072 343.879 633.722 331.99 634.287 334.97C634.853 337.95 642.226 365.68 646.77 376.087C651.313 386.494 643.357 415.722 638.831 424.152C634.305 432.582 637.063 388.485 632.024 399.371C626.986 410.256 609.96 440.534 605.982 443.514C602.004 446.493 607.255 403.107 608.669 397.456C606.901 402.181 595.215 432.103 595.215 432.103L579.303 396.437C579.303 396.437 552.075 377.106 554.904 380.58C557.733 384.054 564.558 394.955 564.558 394.955C564.558 394.955 548.097 391.975 550.944 392.963C553.79 393.951 566.255 399.401 566.255 399.401C566.255 399.401 540.743 415.336 533.37 417.25C531.388 417.76 529.349 418.086 527.288 418.223C527.82 419.517 528.59 420.727 529.569 421.805C536.782 429.787 543.518 424.322 546.878 422.654C550.237 420.987 576.704 399.124 576.704 399.124L601.12 449.998C601.12 449.998 634.924 430.204 670.991 431.47L646.946 349.144C646.946 349.144 680.132 327.297 681.086 319.808C682.041 312.32 670.496 306.298 662.31 307.147Z" fill="white"/>
</g>
<path d="M662.31 307.147C654.142 307.981 632.979 320.58 631.529 321.846C630.079 323.112 624.316 326.046 621.911 327.729C621.911 327.729 572.407 354.61 568.04 357.065C563.673 359.52 555.063 364.615 555.541 366.329C556.018 368.043 530.046 404.929 530.046 404.929C530.046 404.929 522.355 413.745 529.569 421.728C536.782 429.71 543.518 424.244 546.877 422.577C550.237 420.909 576.704 399.046 576.704 399.046L601.12 449.998C601.12 449.998 634.924 430.204 670.991 431.47L646.946 349.144C646.946 349.144 680.132 327.297 681.086 319.808C682.041 312.32 670.496 306.298 662.31 307.147Z" stroke="#263238" stroke-linecap="round" stroke-linejoin="round"/>
<path d="M601.12 449.999C599.698 438.424 600.379 426.726 603.136 415.336L601.12 449.999Z" fill="white"/>
<path d="M601.12 449.999C599.698 438.424 600.379 426.726 603.136 415.336" stroke="#263238" stroke-linecap="round" stroke-linejoin="round"/>
<path d="M596.541 424.26C596.541 424.26 596.54 417.157 605.681 394.924L596.541 424.26Z" fill="white"/>
<path d="M596.541 424.26C596.541 424.26 596.54 417.157 605.681 394.924" stroke="#263238" stroke-linecap="round" stroke-linejoin="round"/>
<path d="M557.945 380.642L576.704 399.123L557.468 386.941" fill="white"/>
<path d="M557.945 380.642L576.704 399.123L557.468 386.941" stroke="#263238" stroke-linecap="round" stroke-linejoin="round"/>
<path d="M646.929 325.629V349.144L653.17 318.897" fill="white"/>
<path d="M646.929 325.629V349.144L653.17 318.897" stroke="#263238" stroke-linecap="round" stroke-linejoin="round"/>
<path d="M608.828 396.931C608.755 397.101 608.701 397.277 608.669 397.456C608.881 396.885 608.952 396.668 608.828 396.931Z" fill="#263238"/>
<path d="M619.825 296.247C618.499 296.255 617.205 295.892 616.134 295.209C615.063 294.527 614.27 293.562 613.874 292.457C613.478 291.352 613.499 290.165 613.934 289.071C614.369 287.977 615.194 287.034 616.289 286.381L687.593 243.674C688.263 243.268 689.017 242.982 689.814 242.831C690.611 242.68 691.433 242.668 692.235 242.795C693.037 242.922 693.803 243.185 694.488 243.571C695.174 243.956 695.765 244.455 696.23 245.04C696.694 245.625 697.022 246.284 697.194 246.98C697.367 247.675 697.381 248.394 697.236 249.094C697.091 249.795 696.789 250.463 696.348 251.062C695.907 251.66 695.335 252.177 694.665 252.583L623.361 295.305C622.32 295.926 621.086 296.255 619.825 296.247Z" fill="#263238"/>
<path d="M638.336 287.23L693.781 253.91" stroke="white" stroke-linecap="round" stroke-linejoin="round"/>
<path d="M632.078 277.071L687.522 243.767" stroke="white" stroke-linecap="round" stroke-linejoin="round"/>
<path d="M601.703 457.023C601.703 457.023 548.292 511.264 547.125 523.616C545.958 535.968 556.549 548.32 569.508 551.408C582.467 554.496 708.809 556.951 708.809 556.951L707.624 536.37L595.445 521.563L632.573 490.25" fill="#263238"/>
<path d="M601.703 457.023C601.703 457.023 548.292 511.264 547.125 523.616C545.958 535.968 556.549 548.32 569.508 551.408C582.467 554.496 708.809 556.951 708.809 556.951L707.624 536.37L595.445 521.563L632.573 490.25" stroke="#263238" stroke-linecap="round" stroke-linejoin="round"/>
<g opacity="0.35">
<path d="M685.188 545.479L693.727 546.329" stroke="white" stroke-linecap="round" stroke-linejoin="round"/>
<path d="M565.07 519.664L562.63 522.366C562.63 522.366 577.871 521.702 574.83 524.358C572.809 526.444 571.488 528.976 571.011 531.676L580.151 529.685C580.151 529.685 574.847 538.949 578.631 538.346C581.527 537.724 584.337 536.828 587.011 535.675L675.411 544.492" stroke="white" stroke-linecap="round" stroke-linejoin="round"/>
<path d="M615.989 447.76C615.989 447.76 601.491 456.422 608.369 457.749C615.246 459.077 623.609 457.086 621.31 459.741C617.975 463 614.434 466.093 610.702 469.005L576.668 506.741" stroke="white" stroke-linecap="round" stroke-linejoin="round"/>
<path d="M608.369 457.796C608.369 457.796 616.749 447.142 635.808 446.479" stroke="white" stroke-linecap="round" stroke-linejoin="round"/>
</g>
<path d="M705.184 536.184C705.184 536.184 718.462 533.544 720.884 537.234C723.306 540.924 724.508 549.88 724.508 554.095C724.508 558.31 728.044 565.165 727.514 571.496C726.984 577.826 716.057 584.666 712.433 584.666C708.808 584.666 708.897 565.69 705.184 558.31C701.471 550.93 700.976 540.399 705.184 536.184Z" fill="white" stroke="#263238" stroke-linecap="round" stroke-linejoin="round"/>
<path d="M713.565 584.497C717.914 583.447 726.966 577.255 727.514 571.496C728.133 565.166 724.508 558.31 724.508 554.095C724.508 549.88 723.288 540.925 720.884 537.235C719.806 535.583 716.552 535.197 713.282 535.274C712.405 536.057 711.748 537.007 711.362 538.049C710.975 539.091 710.87 540.197 711.054 541.28C711.903 547.317 718.815 571.836 716.234 578.629C715.475 580.629 714.584 582.588 713.565 584.497Z" fill="white" stroke="#263238" stroke-linecap="round" stroke-linejoin="round"/>
<path d="M720.884 537.312C720.231 536.503 719.241 535.949 718.126 535.768C715.844 538.492 714.741 541.834 715.015 545.201C715.775 555.253 718.091 563.313 718.851 572.021C719.404 575.849 718.724 579.736 716.889 583.246C721.415 580.883 727.09 576.112 727.497 571.588C728.115 565.258 724.491 558.403 724.491 554.187C724.491 549.972 723.289 540.925 720.884 537.312Z" fill="#263238" stroke="#263238" stroke-linecap="round" stroke-linejoin="round"/>
</g>
<defs>
<clipPath id="clip0_565_2512">
<rect width="884" height="772" fill="white"/>
</clipPath>
</defs>
</svg>
