<svg width="59" height="54" viewBox="0 0 59 54" fill="none" xmlns="http://www.w3.org/2000/svg">
<path d="M29.5003 42.75C29.9865 42.75 30.4618 42.618 30.8661 42.3708C31.2704 42.1236 31.5855 41.7722 31.7715 41.361C31.9576 40.9499 32.0063 40.4975 31.9114 40.061C31.8166 39.6246 31.5824 39.2237 31.2386 38.909C30.8948 38.5943 30.4568 38.3801 29.9799 38.2932C29.5031 38.2064 29.0088 38.251 28.5596 38.4213C28.1104 38.5916 27.7264 38.88 27.4563 39.25C27.1862 39.62 27.042 40.055 27.042 40.5C27.042 41.0967 27.301 41.669 27.762 42.091C28.2231 42.5129 28.8483 42.75 29.5003 42.75ZM41.792 42.75C42.2782 42.75 42.7535 42.618 43.1578 42.3708C43.562 42.1236 43.8771 41.7722 44.0632 41.361C44.2493 40.9499 44.2979 40.4975 44.2031 40.061C44.1082 39.6246 43.8741 39.2237 43.5303 38.909C43.1865 38.5943 42.7485 38.3801 42.2716 38.2932C41.7947 38.2064 41.3004 38.251 40.8512 38.4213C40.402 38.5916 40.0181 38.88 39.748 39.25C39.4778 39.62 39.3337 40.055 39.3337 40.5C39.3337 41.0967 39.5927 41.669 40.0537 42.091C40.5147 42.5129 41.14 42.75 41.792 42.75ZM41.792 33.75C42.2782 33.75 42.7535 33.618 43.1578 33.3708C43.562 33.1236 43.8771 32.7722 44.0632 32.361C44.2493 31.9499 44.2979 31.4975 44.2031 31.061C44.1082 30.6246 43.8741 30.2237 43.5303 29.909C43.1865 29.5943 42.7485 29.38 42.2716 29.2932C41.7947 29.2064 41.3004 29.251 40.8512 29.4213C40.402 29.5916 40.0181 29.88 39.748 30.25C39.4778 30.62 39.3337 31.055 39.3337 31.5C39.3337 32.0967 39.5927 32.669 40.0537 33.091C40.5147 33.5129 41.14 33.75 41.792 33.75ZM29.5003 33.75C29.9865 33.75 30.4618 33.618 30.8661 33.3708C31.2704 33.1236 31.5855 32.7722 31.7715 32.361C31.9576 31.9499 32.0063 31.4975 31.9114 31.061C31.8166 30.6246 31.5824 30.2237 31.2386 29.909C30.8948 29.5943 30.4568 29.38 29.9799 29.2932C29.5031 29.2064 29.0088 29.251 28.5596 29.4213C28.1104 29.5916 27.7264 29.88 27.4563 30.25C27.1862 30.62 27.042 31.055 27.042 31.5C27.042 32.0967 27.301 32.669 27.762 33.091C28.2231 33.5129 28.8483 33.75 29.5003 33.75ZM46.7087 6.75H44.2503V4.5C44.2503 3.90326 43.9913 3.33097 43.5303 2.90901C43.0693 2.48705 42.444 2.25 41.792 2.25C41.14 2.25 40.5147 2.48705 40.0537 2.90901C39.5927 3.33097 39.3337 3.90326 39.3337 4.5V6.75H19.667V4.5C19.667 3.90326 19.408 3.33097 18.947 2.90901C18.4859 2.48705 17.8607 2.25 17.2087 2.25C16.5567 2.25 15.9314 2.48705 15.4704 2.90901C15.0093 3.33097 14.7503 3.90326 14.7503 4.5V6.75H12.292C10.336 6.75 8.46016 7.46116 7.07708 8.72703C5.694 9.9929 4.91699 11.7098 4.91699 13.5V45C4.91699 46.7902 5.694 48.5071 7.07708 49.773C8.46016 51.0388 10.336 51.75 12.292 51.75H46.7087C48.6646 51.75 50.5405 51.0388 51.9236 49.773C53.3067 48.5071 54.0837 46.7902 54.0837 45V13.5C54.0837 11.7098 53.3067 9.9929 51.9236 8.72703C50.5405 7.46116 48.6646 6.75 46.7087 6.75ZM49.167 45C49.167 45.5967 48.908 46.169 48.447 46.591C47.9859 47.0129 47.3607 47.25 46.7087 47.25H12.292C11.64 47.25 11.0147 47.0129 10.5537 46.591C10.0927 46.169 9.83366 45.5967 9.83366 45V24.75H49.167V45ZM49.167 20.25H9.83366V13.5C9.83366 12.9033 10.0927 12.331 10.5537 11.909C11.0147 11.4871 11.64 11.25 12.292 11.25H14.7503V13.5C14.7503 14.0967 15.0093 14.669 15.4704 15.091C15.9314 15.5129 16.5567 15.75 17.2087 15.75C17.8607 15.75 18.4859 15.5129 18.947 15.091C19.408 14.669 19.667 14.0967 19.667 13.5V11.25H39.3337V13.5C39.3337 14.0967 39.5927 14.669 40.0537 15.091C40.5147 15.5129 41.14 15.75 41.792 15.75C42.444 15.75 43.0693 15.5129 43.5303 15.091C43.9913 14.669 44.2503 14.0967 44.2503 13.5V11.25H46.7087C47.3607 11.25 47.9859 11.4871 48.447 11.909C48.908 12.331 49.167 12.9033 49.167 13.5V20.25ZM17.2087 33.75C17.6949 33.75 18.1702 33.618 18.5744 33.3708C18.9787 33.1236 19.2938 32.7722 19.4799 32.361C19.6659 31.9499 19.7146 31.4975 19.6198 31.061C19.5249 30.6246 19.2908 30.2237 18.947 29.909C18.6032 29.5943 18.1651 29.38 17.6883 29.2932C17.2114 29.2064 16.7171 29.251 16.2679 29.4213C15.8187 29.5916 15.4348 29.88 15.1646 30.25C14.8945 30.62 14.7503 31.055 14.7503 31.5C14.7503 32.0967 15.0093 32.669 15.4704 33.091C15.9314 33.5129 16.5567 33.75 17.2087 33.75ZM17.2087 42.75C17.6949 42.75 18.1702 42.618 18.5744 42.3708C18.9787 42.1236 19.2938 41.7722 19.4799 41.361C19.6659 40.9499 19.7146 40.4975 19.6198 40.061C19.5249 39.6246 19.2908 39.2237 18.947 38.909C18.6032 38.5943 18.1651 38.3801 17.6883 38.2932C17.2114 38.2064 16.7171 38.251 16.2679 38.4213C15.8187 38.5916 15.4348 38.88 15.1646 39.25C14.8945 39.62 14.7503 40.055 14.7503 40.5C14.7503 41.0967 15.0093 41.669 15.4704 42.091C15.9314 42.5129 16.5567 42.75 17.2087 42.75Z" fill="white"/>
</svg>
