<svg width="84" height="82" viewBox="0 0 84 82" fill="none" xmlns="http://www.w3.org/2000/svg">
<rect width="83.6616" height="81.6616" rx="5.11027" fill="#F0F5FF"/>
<path d="M41.8309 55.7058C42.2677 55.7058 42.6946 55.5812 43.0578 55.3477C43.4209 55.1142 43.704 54.7823 43.8711 54.394C44.0383 54.0057 44.082 53.5785 43.9968 53.1662C43.9116 52.754 43.7013 52.3754 43.3924 52.0782C43.0836 51.781 42.6901 51.5786 42.2617 51.4966C41.8333 51.4146 41.3893 51.4567 40.9858 51.6176C40.5823 51.7784 40.2374 52.0508 39.9947 52.4002C39.7521 52.7497 39.6226 53.1605 39.6226 53.5808C39.6226 54.1444 39.8552 54.6849 40.2694 55.0834C40.6835 55.4819 41.2452 55.7058 41.8309 55.7058ZM52.8726 55.7058C53.3093 55.7058 53.7363 55.5812 54.0994 55.3477C54.4626 55.1142 54.7457 54.7823 54.9128 54.394C55.0799 54.0057 55.1237 53.5785 55.0385 53.1662C54.9533 52.754 54.7429 52.3754 54.4341 52.0782C54.1252 51.781 53.7318 51.5786 53.3034 51.4966C52.875 51.4146 52.431 51.4567 52.0275 51.6176C51.6239 51.7784 51.2791 52.0508 51.0364 52.4002C50.7937 52.7497 50.6642 53.1605 50.6642 53.5808C50.6642 54.1444 50.8969 54.6849 51.311 55.0834C51.7252 55.4819 52.2869 55.7058 52.8726 55.7058ZM52.8726 47.2058C53.3093 47.2058 53.7363 47.0812 54.0994 46.8477C54.4626 46.6142 54.7457 46.2823 54.9128 45.894C55.0799 45.5057 55.1237 45.0785 55.0385 44.6662C54.9533 44.254 54.7429 43.8754 54.4341 43.5782C54.1252 43.281 53.7318 43.0786 53.3034 42.9966C52.875 42.9146 52.431 42.9567 52.0275 43.1176C51.6239 43.2784 51.2791 43.5508 51.0364 43.9002C50.7937 44.2497 50.6642 44.6605 50.6642 45.0808C50.6642 45.6444 50.8969 46.1849 51.311 46.5834C51.7252 46.9819 52.2869 47.2058 52.8726 47.2058ZM41.8309 47.2058C42.2677 47.2058 42.6946 47.0812 43.0578 46.8477C43.4209 46.6142 43.704 46.2823 43.8711 45.894C44.0383 45.5057 44.082 45.0785 43.9968 44.6662C43.9116 44.254 43.7013 43.8754 43.3924 43.5782C43.0836 43.281 42.6901 43.0786 42.2617 42.9966C41.8333 42.9146 41.3893 42.9567 40.9858 43.1176C40.5823 43.2784 40.2374 43.5508 39.9947 43.9002C39.7521 44.2497 39.6226 44.6605 39.6226 45.0808C39.6226 45.6444 39.8552 46.1849 40.2694 46.5834C40.6835 46.9819 41.2452 47.2058 41.8309 47.2058ZM57.2892 21.7058H55.0809V19.5808C55.0809 19.0172 54.8482 18.4767 54.4341 18.0782C54.0199 17.6797 53.4582 17.4558 52.8726 17.4558C52.2869 17.4558 51.7252 17.6797 51.311 18.0782C50.8969 18.4767 50.6642 19.0172 50.6642 19.5808V21.7058H32.9976V19.5808C32.9976 19.0172 32.7649 18.4767 32.3508 18.0782C31.9366 17.6797 31.3749 17.4558 30.7892 17.4558C30.2035 17.4558 29.6418 17.6797 29.2277 18.0782C28.8136 18.4767 28.5809 19.0172 28.5809 19.5808V21.7058H26.3726C24.6155 21.7058 22.9304 22.3775 21.688 23.573C20.4455 24.7685 19.7476 26.3901 19.7476 28.0808V57.8308C19.7476 59.5216 20.4455 61.1431 21.688 62.3386C22.9304 63.5342 24.6155 64.2058 26.3726 64.2058H57.2892C59.0463 64.2058 60.7314 63.5342 61.9738 62.3386C63.2162 61.1431 63.9142 59.5216 63.9142 57.8308V28.0808C63.9142 26.3901 63.2162 24.7685 61.9738 23.573C60.7314 22.3775 59.0463 21.7058 57.2892 21.7058ZM59.4976 57.8308C59.4976 58.3944 59.2649 58.9349 58.8508 59.3334C58.4366 59.7319 57.8749 59.9558 57.2892 59.9558H26.3726C25.7869 59.9558 25.2252 59.7319 24.811 59.3334C24.3969 58.9349 24.1642 58.3944 24.1642 57.8308V38.7058H59.4976V57.8308ZM59.4976 34.4558H24.1642V28.0808C24.1642 27.5172 24.3969 26.9767 24.811 26.5782C25.2252 26.1797 25.7869 25.9558 26.3726 25.9558H28.5809V28.0808C28.5809 28.6444 28.8136 29.1849 29.2277 29.5834C29.6418 29.9819 30.2035 30.2058 30.7892 30.2058C31.3749 30.2058 31.9366 29.9819 32.3508 29.5834C32.7649 29.1849 32.9976 28.6444 32.9976 28.0808V25.9558H50.6642V28.0808C50.6642 28.6444 50.8969 29.1849 51.311 29.5834C51.7252 29.9819 52.2869 30.2058 52.8726 30.2058C53.4582 30.2058 54.0199 29.9819 54.4341 29.5834C54.8482 29.1849 55.0809 28.6444 55.0809 28.0808V25.9558H57.2892C57.8749 25.9558 58.4366 26.1797 58.8508 26.5782C59.2649 26.9767 59.4976 27.5172 59.4976 28.0808V34.4558ZM30.7892 47.2058C31.226 47.2058 31.653 47.0812 32.0161 46.8477C32.3793 46.6142 32.6623 46.2823 32.8295 45.894C32.9966 45.5057 33.0403 45.0785 32.9551 44.6662C32.8699 44.254 32.6596 43.8754 32.3508 43.5782C32.0419 43.281 31.6484 43.0786 31.2201 42.9966C30.7917 42.9146 30.3477 42.9567 29.9441 43.1176C29.5406 43.2784 29.1957 43.5508 28.9531 43.9002C28.7104 44.2497 28.5809 44.6605 28.5809 45.0808C28.5809 45.6444 28.8136 46.1849 29.2277 46.5834C29.6418 46.9819 30.2035 47.2058 30.7892 47.2058ZM30.7892 55.7058C31.226 55.7058 31.653 55.5812 32.0161 55.3477C32.3793 55.1142 32.6623 54.7823 32.8295 54.394C32.9966 54.0057 33.0403 53.5785 32.9551 53.1662C32.8699 52.754 32.6596 52.3754 32.3508 52.0782C32.0419 51.781 31.6484 51.5786 31.2201 51.4966C30.7917 51.4146 30.3477 51.4567 29.9441 51.6176C29.5406 51.7784 29.1957 52.0508 28.9531 52.4002C28.7104 52.7497 28.5809 53.1605 28.5809 53.5808C28.5809 54.1444 28.8136 54.6849 29.2277 55.0834C29.6418 55.4819 30.2035 55.7058 30.7892 55.7058Z" fill="black"/>
</svg>
