<svg width="93" height="92" viewBox="0 0 93 92" fill="none" xmlns="http://www.w3.org/2000/svg">
<rect x="0.406738" width="91.6616" height="91.6616" rx="5.11027" fill="#F0F5FF"/>
<path d="M23.3623 35.6641H64.3123C65.9925 35.6641 66.8325 35.6641 67.4743 35.991C68.0388 36.2787 68.4977 36.7376 68.7853 37.3021C69.1123 37.9438 69.1123 38.7839 69.1123 40.4641V58.8224C69.1123 60.5026 69.1123 61.3426 68.7853 61.9844C68.4977 62.5489 68.0388 63.0078 67.4743 63.2954C66.8325 63.6224 65.9925 63.6224 64.3123 63.6224H28.1623C26.4821 63.6224 25.6421 63.6224 25.0003 63.2954C24.4358 63.0078 23.9769 62.5489 23.6893 61.9844C23.3623 61.3426 23.3623 60.5026 23.3623 58.8224V35.6641Z" fill="#222222"/>
<path d="M23.3623 29.4976C23.3623 27.6119 23.3623 26.6691 23.9481 26.0833C24.5339 25.4976 25.4767 25.4976 27.3623 25.4976H39.4971C40.3146 25.4976 40.7234 25.4976 41.0909 25.6498C41.4585 25.802 41.7475 26.0911 42.3255 26.6691L48.779 33.1226H23.3623V29.4976Z" fill="#222222"/>
</svg>
