<svg width="238" height="281" viewBox="0 0 238 281" fill="none" xmlns="http://www.w3.org/2000/svg">
<path d="M201.556 43.9062H194.119V19.7578C194.119 8.78125 186.681 0 177.384 0H37.1875C27.8906 0 20.0812 8.78125 20.0812 19.7578V234.898C20.0812 245.875 27.5187 254.656 36.8156 254.656H52.8062V262.559C52.8062 272.658 59.8719 281 68.7969 281H201.184C210.109 281 217.547 272.658 217.547 262.559V62.3469C217.919 52.2484 210.481 43.9062 201.556 43.9062ZM37.1875 245.875C31.9812 245.875 27.5187 241.045 27.5187 234.898V19.7578C27.5187 13.6109 31.9812 8.78125 37.1875 8.78125H177.384C182.591 8.78125 187.053 13.6109 187.053 19.7578V234.898C187.053 241.045 182.591 245.875 177.384 245.875H37.1875ZM210.481 262.559C210.481 268.267 206.391 272.658 201.556 272.658H69.1687C64.3344 272.658 60.2437 268.267 60.2437 262.559V254.656H177.384C186.681 254.656 194.119 245.875 194.119 234.898V52.2484H201.556C206.391 52.2484 210.481 56.6391 210.481 62.3469V262.559Z" fill="#2B6357"/>
<path d="M210.481 62.3469V262.559C210.481 268.267 206.391 272.658 201.556 272.658H69.1688C64.3344 272.658 60.2438 268.267 60.2438 262.559V254.656H177.384C186.681 254.656 194.119 245.875 194.119 234.898V52.2484H201.556C206.391 52.2484 210.481 56.6391 210.481 62.3469Z" fill="#B4F0E3"/>
<path d="M177.384 8.34219H37.1875C31.9812 8.34219 27.5187 13.1719 27.5187 19.3188V234.459C27.5187 240.606 31.9812 245.436 37.1875 245.436H177.384C182.591 245.436 187.053 240.606 187.053 234.459V19.3188C187.053 13.6109 182.591 8.34219 177.384 8.34219ZM50.9469 38.6375H111.562C113.422 38.6375 115.281 40.3938 115.281 43.0281C115.281 45.2234 113.794 47.4188 111.562 47.4188H50.9469C49.0875 47.4188 47.2281 45.6625 47.2281 43.0281C47.2281 40.8328 49.0875 38.6375 50.9469 38.6375ZM107.1 213.384H50.9469C49.0875 213.384 47.2281 211.628 47.2281 208.994C47.2281 206.798 48.7156 204.603 50.9469 204.603H107.1C108.959 204.603 110.819 206.359 110.819 208.994C110.819 211.628 109.331 213.384 107.1 213.384ZM107.1 180.016H50.9469C49.0875 180.016 47.2281 178.259 47.2281 175.625C47.2281 173.43 48.7156 171.234 50.9469 171.234H107.1C108.959 171.234 110.819 172.991 110.819 175.625C110.819 178.259 109.331 180.016 107.1 180.016ZM166.972 211.628C166.972 213.823 165.484 216.019 163.253 216.019H131.272C129.412 216.019 127.553 214.263 127.553 211.628V173.869C127.553 171.673 129.041 169.478 131.272 169.478H163.625C165.484 169.478 167.344 171.234 167.344 173.869V211.628H166.972ZM163.625 147.086H50.9469C49.0875 147.086 47.2281 145.33 47.2281 142.695C47.2281 140.5 48.7156 138.305 50.9469 138.305H163.625C165.484 138.305 167.344 140.061 167.344 142.695C166.972 144.891 165.484 147.086 163.625 147.086ZM163.625 113.717H50.9469C49.0875 113.717 47.2281 111.961 47.2281 109.327C47.2281 107.131 48.7156 104.936 50.9469 104.936H163.625C165.484 104.936 167.344 106.692 167.344 109.327C166.972 111.961 165.484 113.717 163.625 113.717ZM163.625 80.3484H50.9469C49.0875 80.3484 47.2281 78.5922 47.2281 75.9578C47.2281 73.7625 48.7156 71.5672 50.9469 71.5672H163.625C165.484 71.5672 167.344 73.3234 167.344 75.9578C166.972 78.5922 165.484 80.3484 163.625 80.3484Z" fill="#EDEDED"/>
<path d="M177.384 8.34219H37.1875C31.9812 8.34219 27.5187 13.1719 27.5187 19.3188V234.459C27.5187 240.606 31.9812 245.436 37.1875 245.436H177.384C182.591 245.436 187.053 240.606 187.053 234.459V19.3188C187.053 13.6109 182.591 8.34219 177.384 8.34219ZM181.475 234.898C181.475 237.533 179.616 239.289 177.384 239.289H37.1875C34.9562 239.289 33.0969 237.094 33.0969 234.898V19.7578C33.0969 17.1234 34.9562 15.3672 37.1875 15.3672H177.384C179.616 15.3672 181.475 17.5625 181.475 19.7578V234.898Z" fill="#B4F0E3"/>
<path d="M115.281 43.0281C115.281 45.2234 113.794 47.4188 111.563 47.4188H50.9469C49.0875 47.4188 47.2281 45.6625 47.2281 43.0281C47.2281 40.8328 48.7156 38.6375 50.9469 38.6375H111.563C113.422 38.6375 115.281 40.8328 115.281 43.0281ZM166.972 76.3969C166.972 78.5922 165.484 80.7875 163.253 80.7875H50.9469C49.0875 80.7875 47.2281 79.0313 47.2281 76.3969C47.2281 74.2016 48.7156 72.0063 50.9469 72.0063H163.625C165.484 72.0063 166.972 73.7625 166.972 76.3969ZM166.972 109.327C166.972 111.522 165.484 113.717 163.253 113.717H50.9469C49.0875 113.717 47.2281 111.961 47.2281 109.327C47.2281 107.131 48.7156 104.936 50.9469 104.936H163.625C165.484 105.375 166.972 107.131 166.972 109.327ZM166.972 142.695C166.972 144.891 165.484 147.086 163.253 147.086H50.9469C49.0875 147.086 47.2281 145.33 47.2281 142.695C47.2281 140.5 48.7156 138.305 50.9469 138.305H163.625C165.484 138.305 166.972 140.5 166.972 142.695ZM163.625 169.478H131.644C129.784 169.478 127.925 171.234 127.925 173.869V211.628C127.925 213.823 129.413 216.019 131.644 216.019H163.625C165.484 216.019 167.344 214.263 167.344 211.628V173.869C166.972 171.234 165.484 169.478 163.625 169.478ZM159.906 207.238H135.363V178.259H159.906V207.238Z" fill="#2B6357"/>
<path d="M135.362 177.82H159.906V206.798H135.362V177.82Z" fill="#61F2D3"/>
<path d="M135.362 177.82V206.798H159.906V177.82H135.362ZM156.187 202.847H139.081V182.65H156.187V202.847Z" fill="#5AE1C4"/>
<path d="M110.819 176.064C110.819 178.259 109.331 180.455 107.1 180.455H50.9469C49.0875 180.455 47.2281 178.698 47.2281 176.064C47.2281 173.869 48.7156 171.673 50.9469 171.673H107.1C109.331 171.673 110.819 173.43 110.819 176.064ZM110.819 209.433C110.819 211.628 109.331 213.823 107.1 213.823H50.9469C49.0875 213.823 47.2281 212.067 47.2281 209.433C47.2281 207.238 48.7156 205.042 50.9469 205.042H107.1C109.331 205.042 110.819 206.798 110.819 209.433Z" fill="#2B6357"/>
</svg>
