<svg width="64" height="64" viewBox="0 0 64 64" fill="none" xmlns="http://www.w3.org/2000/svg">
<g clip-path="url(#clip0_1205_4021)">
<path d="M4.90039 12V48C4.90039 48.8 5.50039 49.4 6.30039 49.4H62.7004C63.5004 49.4 64.1004 48.8 64.1004 48V7.3C64.0004 6.6 63.4004 6 62.6004 6H41.8004C41.2004 6 40.7004 6.4 40.5004 6.9L39.5004 9.7C39.3004 10.3 38.8004 10.6 38.2004 10.6H6.20039C5.50039 10.6 4.90039 11.2 4.90039 12Z" fill="#3C6E71"/>
<path d="M0 20.7001V56.7001C0 57.4001 0.6 58.0001 1.4 58.0001H57.8C58.6 58.0001 59.2 57.4001 59.2 56.6001V16.0001C59.2 15.2001 58.6 14.6001 57.8 14.6001H36.9C36.3 14.6001 35.8 15.0001 35.6 15.5001L34.6 18.3001C34.4 18.9001 33.9 19.2001 33.3 19.2001H1.3C0.6 19.3001 0 19.9001 0 20.7001Z" fill="#72D1D7"/>
</g>
<defs>
<clipPath id="clip0_1205_4021">
<rect width="64" height="64" fill="white"/>
</clipPath>
</defs>
</svg>
