<svg width="50" height="50" viewBox="0 0 50 50" fill="none" xmlns="http://www.w3.org/2000/svg">
<path fill-rule="evenodd" clip-rule="evenodd" d="M33.3327 18.7503C33.3327 20.9605 32.4547 23.0801 30.8919 24.6429C29.3291 26.2057 27.2095 27.0837 24.9993 27.0837C22.7892 27.0837 20.6696 26.2057 19.1068 24.6429C17.544 23.0801 16.666 20.9605 16.666 18.7503C16.666 16.5402 17.544 14.4206 19.1068 12.8578C20.6696 11.295 22.7892 10.417 24.9993 10.417C27.2095 10.417 29.3291 11.295 30.8919 12.8578C32.4547 14.4206 33.3327 16.5402 33.3327 18.7503ZM29.166 18.7503C29.166 19.8554 28.727 20.9152 27.9456 21.6966C27.1642 22.478 26.1044 22.917 24.9993 22.917C23.8943 22.917 22.8345 22.478 22.0531 21.6966C21.2717 20.9152 20.8327 19.8554 20.8327 18.7503C20.8327 17.6453 21.2717 16.5854 22.0531 15.804C22.8345 15.0226 23.8943 14.5837 24.9993 14.5837C26.1044 14.5837 27.1642 15.0226 27.9456 15.804C28.727 16.5854 29.166 17.6453 29.166 18.7503Z" fill="#E0E0E0"/>
<path fill-rule="evenodd" clip-rule="evenodd" d="M24.9997 2.0835C12.3434 2.0835 2.08301 12.3439 2.08301 25.0002C2.08301 37.6564 12.3434 47.9168 24.9997 47.9168C37.6559 47.9168 47.9163 37.6564 47.9163 25.0002C47.9163 12.3439 37.6559 2.0835 24.9997 2.0835ZM6.24967 25.0002C6.24967 29.3543 7.73509 33.3627 10.2247 36.546C11.9735 34.2504 14.2292 32.39 16.8156 31.11C19.402 29.83 22.2493 29.165 25.1351 29.1668C27.9838 29.1635 30.7956 29.8108 33.3562 31.0593C35.9167 32.3078 38.1584 34.1245 39.9101 36.371C41.7152 34.0035 42.9306 31.2402 43.4557 28.3097C43.9808 25.3793 43.8006 22.3659 42.9299 19.5189C42.0592 16.6719 40.523 14.0732 38.4486 11.9377C36.3742 9.8023 33.821 8.19154 31.0005 7.23872C28.1799 6.28591 25.173 6.01844 22.2285 6.45844C19.2841 6.89844 16.4867 8.03327 14.0679 9.76902C11.6491 11.5048 9.67845 13.7916 8.3189 16.4402C6.95936 19.0887 6.25005 22.023 6.24967 25.0002ZM24.9997 43.7502C20.6953 43.7571 16.5208 42.2763 13.183 39.5585C14.5264 37.6348 16.3147 36.0641 18.3957 34.9803C20.4767 33.8964 22.7888 33.3315 25.1351 33.3335C27.4521 33.3315 29.7362 33.8824 31.7976 34.9404C33.8589 35.9984 35.6381 37.5331 36.9872 39.4168C33.6236 42.2231 29.3802 43.757 24.9997 43.7502Z" fill="#E0E0E0"/>
</svg>
