<svg width="80" height="80" viewBox="0 0 80 80" fill="none" xmlns="http://www.w3.org/2000/svg">
<path d="M40.0003 73.3334C21.5908 73.3334 6.66699 58.4094 6.66699 40.0001C6.66699 21.5906 21.5908 6.66675 40.0003 6.66675C58.4097 6.66675 73.3337 21.5906 73.3337 40.0001C73.3337 58.4094 58.4097 73.3334 40.0003 73.3334ZM40.0003 66.6668C54.728 66.6668 66.667 54.7278 66.667 40.0001C66.667 25.2725 54.728 13.3334 40.0003 13.3334C25.2727 13.3334 13.3337 25.2725 13.3337 40.0001C13.3337 54.7278 25.2727 66.6668 40.0003 66.6668ZM36.667 50.0001H43.3337V56.6668H36.667V50.0001ZM43.3337 44.5171V46.6667H36.667V41.6667C36.667 39.8257 38.1593 38.3334 40.0003 38.3334C42.7617 38.3334 45.0003 36.0947 45.0003 33.3334C45.0003 30.572 42.7617 28.3334 40.0003 28.3334C37.5747 28.3334 35.5523 30.0608 35.0963 32.3526L28.558 31.045C29.6216 25.6974 34.3403 21.6667 40.0003 21.6667C46.4437 21.6667 51.667 26.8901 51.667 33.3334C51.667 38.6184 48.1527 43.0827 43.3337 44.5171Z" fill="white"/>
</svg>
