<svg width="134" height="135" viewBox="0 0 134 135" fill="none" xmlns="http://www.w3.org/2000/svg">
<path d="M111.666 44.9999L78.1662 15.4124C75.0953 12.6451 71.1197 11.1152 66.9995 11.1152C62.8794 11.1152 58.9038 12.6451 55.8329 15.4124L22.3329 44.9999C20.5594 46.5978 19.1442 48.558 18.1815 50.75C17.2188 52.942 16.7306 55.3154 16.7496 57.7124V106.875C16.7496 111.35 18.5143 115.643 21.6555 118.807C24.7967 121.972 29.0572 123.75 33.4996 123.75H100.5C104.942 123.75 109.202 121.972 112.344 118.807C115.485 115.643 117.25 111.35 117.25 106.875V57.6561C117.261 55.2686 116.769 52.906 115.806 50.7243C114.844 48.5426 113.433 46.5915 111.666 44.9999ZM78.1662 112.5H55.8329V84.3748C55.8329 82.883 56.4211 81.4523 57.4682 80.3974C58.5153 79.3425 59.9354 78.7498 61.4162 78.7498H72.5829C74.0637 78.7498 75.4838 79.3425 76.5309 80.3974C77.578 81.4523 78.1662 82.883 78.1662 84.3748V112.5ZM106.083 106.875C106.083 108.367 105.495 109.797 104.448 110.852C103.4 111.907 101.98 112.5 100.5 112.5H89.3329V84.3748C89.3329 79.8993 87.5682 75.6071 84.4269 72.4424C81.2857 69.2777 77.0253 67.4998 72.5829 67.4998H61.4162C56.9738 67.4998 52.7134 69.2777 49.5722 72.4424C46.4309 75.6071 44.6662 79.8993 44.6662 84.3748V112.5H33.4996C32.0188 112.5 30.5986 111.907 29.5515 110.852C28.5045 109.797 27.9162 108.367 27.9162 106.875V57.6561C27.9172 56.8574 28.087 56.0681 28.4143 55.3407C28.7417 54.6133 29.219 53.9645 29.8146 53.4374L63.3145 23.9061C64.3334 23.0043 65.6433 22.507 66.9995 22.507C68.3558 22.507 69.6657 23.0043 70.6845 23.9061L104.185 53.4374C104.78 53.9645 105.257 54.6133 105.585 55.3407C105.912 56.0681 106.082 56.8574 106.083 57.6561V106.875Z" fill="white"/>
</svg>
