<svg width="50" height="50" viewBox="0 0 50 50" fill="none" xmlns="http://www.w3.org/2000/svg">
<path d="M14.5007 45.833C13.3548 45.833 12.3743 45.4254 11.559 44.6101C10.7437 43.7948 10.3354 42.8136 10.334 41.6663V20.833C10.334 19.6872 10.7423 18.7066 11.559 17.8913C12.3757 17.0761 13.3562 16.6677 14.5007 16.6663H16.584V12.4997C16.584 9.61773 17.6 7.16148 19.6319 5.13093C21.6638 3.10037 24.1201 2.0844 27.0007 2.08301C29.8812 2.08162 32.3382 3.09759 34.3715 5.13093C36.4048 7.16426 37.4201 9.62051 37.4173 12.4997V16.6663H39.5007C40.6465 16.6663 41.6277 17.0747 42.4444 17.8913C43.2611 18.708 43.6687 19.6886 43.6673 20.833V41.6663C43.6673 42.8122 43.2597 43.7934 42.4444 44.6101C41.6291 45.4268 40.6479 45.8344 39.5007 45.833H14.5007ZM14.5007 41.6663H39.5007V20.833H14.5007V41.6663ZM27.0007 35.4163C28.1465 35.4163 29.1277 35.0087 29.9444 34.1934C30.7611 33.3781 31.1687 32.3969 31.1673 31.2497C31.1659 30.1025 30.7583 29.1219 29.9444 28.308C29.1305 27.4941 28.1493 27.0858 27.0007 27.083C25.852 27.0802 24.8715 27.4886 24.059 28.308C23.2465 29.1275 22.8382 30.108 22.834 31.2497C22.8298 32.3913 23.2382 33.3726 24.059 34.1934C24.8798 35.0143 25.8604 35.4219 27.0007 35.4163ZM20.7507 16.6663H33.2507V12.4997C33.2507 10.7636 32.643 9.28787 31.4277 8.07259C30.2125 6.85731 28.7368 6.24968 27.0007 6.24968C25.2645 6.24968 23.7888 6.85731 22.5736 8.07259C21.3583 9.28787 20.7507 10.7636 20.7507 12.4997V16.6663Z" fill="#E0E0E0"/>
</svg>
