<svg width="84" height="82" viewBox="0 0 84 82" fill="none" xmlns="http://www.w3.org/2000/svg">
<rect width="83.6616" height="81.6616" rx="5.11027" fill="#F0F5FF"/>
<path d="M25.2651 66.3308H23.0653C20.661 66.3308 18.536 65.4405 17.0841 63.8282C15.6322 62.2138 15.0405 60.0045 15.465 57.7686C16.2966 53.3665 20.6566 49.9202 25.3949 49.9202H30.934V22.9884C30.9389 21.4282 31.577 19.9275 32.7201 18.7881C33.8632 17.6487 35.4265 16.9551 37.0956 16.8468L61.2934 15.3431C62.1945 15.2901 63.0976 15.4088 63.9479 15.692C64.7981 15.9752 65.5775 16.4169 66.2386 16.9903C67.5672 18.1493 68.3306 19.7884 68.3306 21.4848L68.3086 50.9603C68.3064 51.4115 68.2822 51.8587 68.192 52.3305C67.3605 56.7306 63.0005 60.1768 58.2621 60.1768H56.0623C53.6579 60.1768 51.5329 59.2866 50.0811 57.6742C48.6292 56.0598 48.0374 53.8506 48.462 51.6146C49.2935 47.2125 53.6535 43.7663 58.3919 43.7663H63.931V33.7927C63.931 33.2184 63.6846 32.685 63.2336 32.2932C63.0149 32.1002 62.7554 31.9517 62.4717 31.8574C62.188 31.7631 61.8864 31.725 61.586 31.7455L37.3882 33.2491C36.8318 33.2854 36.3107 33.5166 35.9296 33.8964C35.5485 34.2761 35.3356 34.7762 35.3336 35.2964V57.0999C35.3336 57.2824 35.3072 57.4588 35.261 57.627C35.2412 58.2527 35.217 58.3676 35.1972 58.4845C34.3613 62.8825 30.0013 66.3308 25.2651 66.3308ZM25.3927 54.0229C22.8146 54.0229 20.2518 56.0639 19.7942 58.4825C19.5963 59.5368 19.8316 60.4968 20.4542 61.1922C21.0547 61.8589 21.983 62.2282 23.0653 62.2282H25.2651C27.8433 62.2282 30.4061 60.1871 30.8636 57.7686C30.857 57.7645 30.8878 57.1675 30.9076 54.0229H25.3927ZM58.3897 47.8689C55.8115 47.8689 53.2488 49.91 52.7912 52.3285C52.5932 53.3829 52.8286 54.3429 53.4511 55.0383C54.0517 55.705 54.98 56.0742 56.0623 56.0742H58.2621C60.8403 56.0742 63.403 54.0331 63.8606 51.6146C63.9046 51.3828 63.9068 51.1572 63.9068 50.9377L63.9222 47.8689H58.3897ZM37.3838 20.9412C36.8274 20.9775 36.3063 21.2087 35.9252 21.5884C35.5441 21.9682 35.3312 22.4683 35.3292 22.9884V29.4952C35.8858 29.3106 36.4753 29.1937 37.0913 29.1547L61.289 27.6511C62.1865 27.6039 63.0863 27.7147 63.9266 27.9916V21.4827C63.9266 20.9084 63.6802 20.375 63.2292 19.9832C63.0102 19.7906 62.7506 19.6424 62.467 19.5482C62.1834 19.4539 61.8819 19.4155 61.5816 19.4355L37.3838 20.9412Z" fill="black"/>
</svg>
