<svg width="59" height="51" viewBox="0 0 59 51" fill="none" xmlns="http://www.w3.org/2000/svg">
<path d="M10.901 50.5576H8.48722C5.84894 50.5576 3.51722 49.6896 1.92411 48.1175C0.331009 46.5435 -0.318301 44.3894 0.147561 42.2093C1.05997 37.9172 5.84411 34.557 11.0434 34.557H17.1214V8.29808C17.1267 6.7768 17.8269 5.31359 19.0812 4.20267C20.3355 3.09175 22.0509 2.41548 23.8824 2.30986L50.4341 0.843806C51.4228 0.792058 52.4139 0.90778 53.3468 1.18391C54.2797 1.46004 55.135 1.89079 55.8603 2.44986C57.3183 3.57991 58.1558 5.17797 58.1558 6.83203L58.1317 35.5711C58.1293 36.0111 58.1027 36.4471 58.0038 36.9071C57.0914 41.1973 52.3072 44.5574 47.1079 44.5574H44.6941C42.0558 44.5574 39.7241 43.6894 38.131 42.1173C36.5379 40.5433 35.8886 38.3892 36.3545 36.2091C37.2669 31.9169 42.051 28.5568 47.2503 28.5568H53.3283V18.8325C53.3283 18.2724 53.0579 17.7524 52.5631 17.3704C52.3231 17.1822 52.0383 17.0375 51.727 16.9455C51.4158 16.8536 51.0847 16.8164 50.7552 16.8364L24.2034 18.3024C23.5929 18.3378 23.0211 18.5632 22.6029 18.9335C22.1848 19.3038 21.9511 19.7914 21.9489 20.2985V41.5573C21.9489 41.7353 21.92 41.9073 21.8693 42.0713C21.8476 42.6813 21.821 42.7933 21.7993 42.9074C20.882 47.1955 16.0979 50.5576 10.901 50.5576ZM11.041 38.5572C8.21204 38.5572 5.39998 40.5473 4.89791 42.9054C4.68066 43.9334 4.93894 44.8694 5.62204 45.5474C6.28101 46.1975 7.29963 46.5575 8.48722 46.5575H10.901C13.73 46.5575 16.542 44.5674 17.0441 42.2093C17.0369 42.2053 17.0707 41.6233 17.0924 38.5572H11.041ZM47.2479 32.557C44.4189 32.557 41.6069 34.547 41.1048 36.9051C40.8876 37.9332 41.1458 38.8692 41.8289 39.5472C42.4879 40.1973 43.5065 40.5573 44.6941 40.5573H47.1079C49.9369 40.5573 52.7489 38.5672 53.251 36.2091C53.2993 35.9831 53.3017 35.7631 53.3017 35.5491L53.3186 32.557H47.2479ZM24.1986 6.30201C23.5881 6.33736 23.0163 6.5628 22.5981 6.93306C22.1799 7.30332 21.9463 7.79097 21.9441 8.29808V14.6423C22.5548 14.4623 23.2017 14.3483 23.8776 14.3103L50.4293 12.8442C51.4141 12.7982 52.4014 12.9062 53.3234 13.1763V6.83003C53.3234 6.27 53.0531 5.74999 52.5583 5.36797C52.3179 5.18014 52.0331 5.0357 51.7219 4.94378C51.4107 4.85185 51.0799 4.81446 50.7503 4.83395L24.1986 6.30201Z" fill="white"/>
</svg>
