<svg width="85" height="83" viewBox="0 0 85 83" fill="none" xmlns="http://www.w3.org/2000/svg">
<rect y="0.330566" width="84.6616" height="82.6616" rx="5.11027" fill="#F0F5FF"/>
<g clip-path="url(#clip0_185_443)">
<mask id="path-2-inside-1_185_443" fill="white">
<path d="M16.5457 16.4937C16.24 16.4937 15.9468 16.6098 15.7307 16.8164C15.5145 17.0231 15.3931 17.3034 15.3931 17.5957V56.4967C15.3931 56.789 15.5145 57.0693 15.7307 57.276C15.9468 57.4827 16.24 57.5988 16.5457 57.5988H26.2804L27.9632 66.5868C28.0182 66.8738 28.1896 67.1283 28.44 67.2951C28.6904 67.4619 28.9995 67.5273 29.3002 67.4772L58.8409 62.4079C58.917 62.3925 58.9793 62.355 59.0484 62.3286C59.1014 62.3088 59.1545 62.2977 59.2052 62.2691C59.3545 62.1907 59.4836 62.0816 59.5832 61.9495L68.2 50.0984C68.3111 49.9368 68.3748 49.7495 68.3844 49.5563C68.389 49.5056 68.3936 49.4659 68.389 49.4152C68.389 49.3667 68.3982 49.3204 68.389 49.2719L63.0894 21.0339C63.0338 20.7472 62.8623 20.493 62.612 20.3263C62.3618 20.1597 62.0529 20.094 61.7524 20.1435L58.3868 20.7188V17.5957C58.3868 17.3034 58.2654 17.0231 58.0492 16.8164C57.8331 16.6098 57.5399 16.4937 57.2342 16.4937H16.5457ZM17.6982 18.6977H56.0793V21.1155L21.7046 27.0179C21.5559 27.0434 21.4138 27.0967 21.2866 27.1748C21.1595 27.2529 21.0497 27.3543 20.9636 27.473C20.8775 27.5918 20.8168 27.7257 20.7849 27.8669C20.7531 28.0082 20.7507 28.1541 20.7779 28.2962L25.8655 55.3947H17.6982V18.6977ZM61.0286 22.5106L65.9224 48.5799L56.545 50.1844C56.2445 50.2381 55.9782 50.4028 55.8038 50.6429C55.6295 50.883 55.5612 51.1792 55.6137 51.4672L57.2965 60.4353L30.0309 65.1145L23.2445 28.9905L61.0262 22.5084L61.0286 22.5106ZM64.7237 51.0197L59.2766 58.5112L58.0849 52.1614L64.7237 51.0197Z"/>
</mask>
<path d="M16.5457 16.4937C16.24 16.4937 15.9468 16.6098 15.7307 16.8164C15.5145 17.0231 15.3931 17.3034 15.3931 17.5957V56.4967C15.3931 56.789 15.5145 57.0693 15.7307 57.276C15.9468 57.4827 16.24 57.5988 16.5457 57.5988H26.2804L27.9632 66.5868C28.0182 66.8738 28.1896 67.1283 28.44 67.2951C28.6904 67.4619 28.9995 67.5273 29.3002 67.4772L58.8409 62.4079C58.917 62.3925 58.9793 62.355 59.0484 62.3286C59.1014 62.3088 59.1545 62.2977 59.2052 62.2691C59.3545 62.1907 59.4836 62.0816 59.5832 61.9495L68.2 50.0984C68.3111 49.9368 68.3748 49.7495 68.3844 49.5563C68.389 49.5056 68.3936 49.4659 68.389 49.4152C68.389 49.3667 68.3982 49.3204 68.389 49.2719L63.0894 21.0339C63.0338 20.7472 62.8623 20.493 62.612 20.3263C62.3618 20.1597 62.0529 20.094 61.7524 20.1435L58.3868 20.7188V17.5957C58.3868 17.3034 58.2654 17.0231 58.0492 16.8164C57.8331 16.6098 57.5399 16.4937 57.2342 16.4937H16.5457ZM17.6982 18.6977H56.0793V21.1155L21.7046 27.0179C21.5559 27.0434 21.4138 27.0967 21.2866 27.1748C21.1595 27.2529 21.0497 27.3543 20.9636 27.473C20.8775 27.5918 20.8168 27.7257 20.7849 27.8669C20.7531 28.0082 20.7507 28.1541 20.7779 28.2962L25.8655 55.3947H17.6982V18.6977ZM61.0286 22.5106L65.9224 48.5799L56.545 50.1844C56.2445 50.2381 55.9782 50.4028 55.8038 50.6429C55.6295 50.883 55.5612 51.1792 55.6137 51.4672L57.2965 60.4353L30.0309 65.1145L23.2445 28.9905L61.0262 22.5084L61.0286 22.5106ZM64.7237 51.0197L59.2766 58.5112L58.0849 52.1614L64.7237 51.0197Z" fill="#1D0404"/>
<path d="M26.2804 57.5988L124.573 39.1961L109.296 -42.4012H26.2804V57.5988ZM27.9632 66.5868L-70.3289 84.9895L-70.2885 85.2054L-70.2471 85.4212L27.9632 66.5868ZM29.3002 67.4772L45.745 166.116L45.9792 166.077L46.2132 166.037L29.3002 67.4772ZM58.8409 62.4079L75.7539 160.967L77.24 160.712L78.7177 160.413L58.8409 62.4079ZM59.0484 62.3286L24.0071 -31.3309L23.6665 -31.2035L23.3268 -31.0736L59.0484 62.3286ZM59.2052 62.2691L12.7399 -26.2802L11.3659 -25.5592L10.015 -24.796L59.2052 62.2691ZM59.5832 61.9495L139.422 122.164L139.949 121.465L140.464 120.757L59.5832 61.9495ZM68.2 50.0984L149.081 108.906L149.856 107.84L150.603 106.754L68.2 50.0984ZM68.3844 49.5563L-31.2046 40.4989L-31.3914 42.5528L-31.4934 44.6126L68.3844 49.5563ZM68.389 49.4152H-31.611V53.9532L-31.2 58.4725L68.389 49.4152ZM68.389 49.2719L-29.8951 67.7175L-29.873 67.8354L-29.8506 67.9534L68.389 49.2719ZM63.0894 21.0339L161.373 2.58841L161.318 2.293L161.261 1.99794L63.0894 21.0339ZM61.7524 20.1435L45.4938 -78.5259L45.1989 -78.4773L44.9044 -78.427L61.7524 20.1435ZM58.3868 20.7188H-41.6132V139.261L75.2348 119.289L58.3868 20.7188ZM17.6982 18.6977V-81.3023H-82.3018V18.6977H17.6982ZM56.0793 18.6977H156.079V-81.3023H56.0793V18.6977ZM56.0793 21.1155L73.0024 119.673L156.079 105.408V21.1155H56.0793ZM21.7046 27.0179L38.5909 125.582L38.6093 125.579L38.6277 125.576L21.7046 27.0179ZM20.7779 28.2962L119.061 9.84443L119.025 9.65404L118.989 9.46379L20.7779 28.2962ZM25.8655 55.3947V155.395H146.387L124.148 36.9429L25.8655 55.3947ZM17.6982 55.3947H-82.3018V155.395H17.6982V55.3947ZM61.0286 22.5106L159.312 4.06032L153.365 -27.6162L130.041 -49.8587L61.0286 22.5106ZM65.9224 48.5799L82.7879 147.147L182.955 130.008L164.206 30.1295L65.9224 48.5799ZM56.545 50.1844L39.6796 -48.3831L39.3244 -48.3223L38.9697 -48.259L56.545 50.1844ZM55.6137 51.4672L-42.7642 69.4057L-42.7183 69.6576L-42.671 69.9091L55.6137 51.4672ZM57.2965 60.4353L74.2106 158.995L174.312 141.816L155.581 41.9933L57.2965 60.4353ZM30.0309 65.1145L-68.2498 83.578L-50.0747 180.324L46.945 163.674L30.0309 65.1145ZM23.2445 28.9905L6.335 -69.5695L-93.7936 -52.3909L-75.0362 47.454L23.2445 28.9905ZM61.0262 22.5084L130.038 -49.8609L93.6602 -84.5515L44.1168 -76.0515L61.0262 22.5084ZM64.7237 51.0197L145.604 109.828L290.355 -89.2498L47.7756 -47.5336L64.7237 51.0197ZM59.2766 58.5112L-39.0073 76.9578L3.77261 304.89L140.157 117.32L59.2766 58.5112ZM58.0849 52.1614L41.1367 -46.3919L-58.9286 -29.1837L-40.199 70.608L58.0849 52.1614ZM16.5457 -83.5063C-8.8701 -83.5063 -34.0978 -73.895 -53.3765 -55.4622L84.8378 89.095C65.9914 107.114 41.35 116.494 16.5457 116.494V-83.5063ZM-53.3765 -55.4622C-72.8078 -36.8835 -84.6069 -10.703 -84.6069 17.5957H115.393C115.393 45.3098 103.837 70.9297 84.8378 89.095L-53.3765 -55.4622ZM-84.6069 17.5957V56.4967H115.393V17.5957H-84.6069ZM-84.6069 56.4967C-84.6069 84.7951 -72.8081 110.976 -53.3765 129.555L84.8378 -15.0026C103.837 3.16297 115.393 28.783 115.393 56.4967H-84.6069ZM-53.3765 129.555C-34.0972 147.988 -8.86924 157.599 16.5457 157.599V-42.4012C41.3492 -42.4012 65.9908 -33.0227 84.8378 -15.0026L-53.3765 129.555ZM16.5457 157.599H26.2804V-42.4012H16.5457V157.599ZM-72.0117 76.0014L-70.3289 84.9895L126.255 48.1841L124.573 39.1961L-72.0117 76.0014ZM-70.2471 85.4212C-64.9772 112.901 -48.8182 135.989 -26.991 150.526L83.8709 -15.936C105.197 -1.7328 121.014 20.8468 126.173 47.7523L-70.2471 85.4212ZM-26.991 150.526C-5.30274 164.97 20.7614 170.281 45.745 166.116L12.8554 -31.1614C37.2377 -35.2263 62.6835 -30.0465 83.8709 -15.936L-26.991 150.526ZM46.2132 166.037L75.7539 160.967L41.9279 -36.1514L12.3872 -31.0822L46.2132 166.037ZM78.7177 160.413C88.838 158.36 96.2963 155.173 98.6924 154.135C99.3331 153.857 99.8326 153.633 99.971 153.57C100.334 153.407 99.8834 153.61 99.7454 153.671C99.2311 153.901 97.301 154.763 94.77 155.731L23.3268 -31.0736C20.7612 -30.0924 18.7974 -29.2159 18.2496 -28.9715C18.0948 -28.9024 17.6276 -28.6923 17.9738 -28.8479C18.0955 -28.9026 18.5783 -29.1197 19.2021 -29.3899C21.5308 -30.3985 28.92 -33.5596 38.9642 -35.5967L78.7177 160.413ZM94.0897 155.988C91.9427 156.791 90.2389 157.34 89.8272 157.473C88.7189 157.831 90.251 157.339 90.9943 157.089C93.3498 156.297 100.274 153.922 108.395 149.334L10.015 -24.796C18.0853 -29.3556 24.958 -31.7103 27.261 -32.4845C27.9781 -32.7256 29.4838 -33.2099 28.3491 -32.8434C27.911 -32.7019 26.1806 -32.1441 24.0071 -31.3309L94.0897 155.988ZM105.67 150.818C118.642 144.012 130.253 134.321 139.422 122.164L-20.2551 1.73454C-11.2855 -10.1582 0.0671978 -19.6304 12.7399 -26.2802L105.67 150.818ZM140.464 120.757L149.081 108.906L-12.6808 -8.70885L-21.2976 3.14219L140.464 120.757ZM150.603 106.754C161.067 91.5342 167.322 73.4886 168.262 54.4999L-31.4934 44.6126C-30.5726 26.0104 -24.4443 8.33932 -14.2026 -6.55677L150.603 106.754ZM167.973 58.6136C167.736 61.2202 168.975 51.3196 167.978 40.3579L-31.2 58.4725C-32.1877 47.6122 -30.9583 37.7909 -31.2046 40.4989L167.973 58.6136ZM168.389 49.4152C168.389 52.4191 168.248 54.7595 168.208 55.4137C168.196 55.6099 168.163 56.1353 168.189 55.7239C168.199 55.5699 168.237 54.9694 168.274 54.2024C168.411 51.4023 168.828 42.1547 166.628 30.5905L-29.8506 67.9534C-32.0404 56.4377 -31.6234 47.2374 -31.4895 44.4848C-31.4527 43.7296 -31.415 43.1409 -31.406 42.9988C-31.3805 42.5993 -31.4149 43.1366 -31.4275 43.3446C-31.4685 44.0227 -31.611 46.387 -31.611 49.4152H168.389ZM166.673 30.8264L161.373 2.58841L-35.1947 39.4795L-29.8951 67.7175L166.673 30.8264ZM161.261 1.99794C155.949 -25.3975 139.814 -48.4058 118.043 -62.9047L7.18108 103.557C-14.089 89.3918 -29.8811 66.892 -35.0821 40.07L161.261 1.99794ZM118.043 -62.9047C96.4094 -77.3124 70.4209 -82.6334 45.4938 -78.5259L78.011 118.813C53.6849 122.821 28.3142 117.632 7.18108 103.557L118.043 -62.9047ZM44.9044 -78.427L41.5388 -77.8517L75.2348 119.289L78.6004 118.714L44.9044 -78.427ZM158.387 20.7188V17.5957H-41.6132V20.7188H158.387ZM158.387 17.5957C158.387 -10.7028 146.588 -36.8834 127.156 -55.4622L-11.058 89.095C-30.057 70.9296 -41.6132 45.3096 -41.6132 17.5957H158.387ZM127.156 -55.4622C107.878 -73.895 82.6499 -83.5063 57.2342 -83.5063V116.494C32.4299 116.494 7.7885 107.115 -11.058 89.095L127.156 -55.4622ZM57.2342 -83.5063H16.5457V116.494H57.2342V-83.5063ZM17.6982 118.698H56.0793V-81.3023H17.6982V118.698ZM-43.9207 18.6977V21.1155H156.079V18.6977H-43.9207ZM39.1563 -77.4422L4.78157 -71.5398L38.6277 125.576L73.0024 119.673L39.1563 -77.4422ZM4.81834 -71.5461C-7.74331 -69.394 -19.9387 -64.8606 -31.0502 -58.0358L73.6235 112.385C62.7663 119.054 50.855 123.481 38.5909 125.582L4.81834 -71.5461ZM-31.0502 -58.0358C-42.1697 -51.2062 -52.0703 -42.159 -60.0009 -31.219L101.928 86.165C94.1697 96.8675 84.4887 105.712 73.6235 112.385L-31.0502 -58.0358ZM-60.0009 -31.219C-67.9396 -20.2677 -73.7101 -7.67905 -76.7651 5.86701L118.335 49.8668C115.344 63.1304 109.695 75.4513 101.928 86.165L-60.0009 -31.219ZM-76.7651 5.86701C-79.8218 19.4209 -80.0524 33.4673 -77.4327 47.1286L118.989 9.46379C121.554 22.8409 121.328 36.5955 118.335 49.8668L-76.7651 5.86701ZM-77.505 46.748L-72.4175 73.8465L124.148 36.9429L119.061 9.84443L-77.505 46.748ZM25.8655 -44.6053H17.6982V155.395H25.8655V-44.6053ZM117.698 55.3947V18.6977H-82.3018V55.3947H117.698ZM-37.2546 40.961L-32.3608 67.0302L164.206 30.1295L159.312 4.06032L-37.2546 40.961ZM49.057 -49.9876L39.6796 -48.3831L73.4104 148.752L82.7879 147.147L49.057 -49.9876ZM38.9697 -48.259C14.0308 -43.8066 -9.27439 -29.9306 -25.1182 -8.10759L136.726 109.393C121.231 130.736 98.4581 144.283 74.1203 148.628L38.9697 -48.259ZM-25.1182 -8.10759C-41.0917 13.8941 -47.7928 41.8279 -42.7642 69.4057L153.992 33.5286C158.915 60.5305 152.351 87.872 136.726 109.393L-25.1182 -8.10759ZM-42.671 69.9091L-40.9883 78.8773L155.581 41.9933L153.898 33.0252L-42.671 69.9091ZM40.3824 -38.1238L13.1168 -33.4447L46.945 163.674L74.2106 158.995L40.3824 -38.1238ZM128.312 46.651L121.525 10.527L-75.0362 47.454L-68.2498 83.578L128.312 46.651ZM40.154 127.55L77.9357 121.068L44.1168 -76.0515L6.335 -69.5695L40.154 127.55ZM-7.9859 94.8778L-7.98359 94.88L130.041 -49.8587L130.038 -49.8609L-7.9859 94.8778ZM-16.1562 -7.78872L-21.6033 -0.297232L140.157 117.32L145.604 109.828L-16.1562 -7.78872ZM157.561 40.0646L156.369 33.7148L-40.199 70.608L-39.0073 76.9578L157.561 40.0646ZM75.033 150.715L81.6719 149.573L47.7756 -47.5336L41.1367 -46.3919L75.033 150.715Z" fill="black" mask="url(#path-2-inside-1_185_443)"/>
</g>
<defs>
<clipPath id="clip0_185_443">
<rect width="54" height="52" fill="white" transform="translate(15.3306 15.6611)"/>
</clipPath>
</defs>
</svg>
