<svg width="54" height="52" viewBox="0 0 54 52" fill="none" xmlns="http://www.w3.org/2000/svg">
<g clip-path="url(#clip0_357_382)">
<mask id="path-1-inside-1_357_382" fill="white">
<path d="M1.21509 0.832031C0.909401 0.832031 0.616237 0.948136 0.400085 1.1548C0.183933 1.36147 0.0625 1.64177 0.0625 1.93404V40.8351C0.0625 41.1274 0.183933 41.4077 0.400085 41.6144C0.616237 41.821 0.909401 41.9371 1.21509 41.9371H10.9498L12.6326 50.9252C12.6876 51.2121 12.859 51.4667 13.1094 51.6335C13.3598 51.8003 13.669 51.8657 13.9696 51.8156L43.5104 46.7463C43.5865 46.7309 43.6487 46.6934 43.7178 46.667C43.7709 46.6471 43.8239 46.6361 43.8746 46.6075C44.0239 46.5291 44.153 46.4199 44.2526 46.2879L52.8694 34.4368C52.9805 34.2752 53.0442 34.0879 53.0538 33.8946C53.0584 33.8439 53.063 33.8043 53.0584 33.7536C53.0584 33.7051 53.0676 33.6588 53.0584 33.6103L47.7588 5.37233C47.7032 5.08562 47.5317 4.83139 47.2815 4.66473C47.0312 4.49806 46.7224 4.43238 46.4218 4.4819L43.0563 5.05715V1.93404C43.0563 1.64177 42.9348 1.36147 42.7187 1.1548C42.5025 0.948136 42.2094 0.832031 41.9037 0.832031H1.21509ZM2.36767 3.03606H40.7488V5.45388L6.37406 11.3563C6.22529 11.3817 6.08324 11.4351 5.95608 11.5132C5.82891 11.5913 5.71913 11.6926 5.63303 11.8114C5.54693 11.9302 5.48621 12.064 5.45435 12.2053C5.42249 12.3466 5.42013 12.4925 5.44738 12.6346L10.5349 39.7331H2.36767V3.03606ZM45.698 6.84902L50.5919 32.9183L41.2144 34.5228C40.9139 34.5764 40.6476 34.7412 40.4733 34.9813C40.299 35.2214 40.2306 35.5176 40.2831 35.8055L41.9659 44.7737L14.7003 49.4529L7.91392 13.3289L45.6957 6.84682L45.698 6.84902ZM49.3932 35.3581L43.9461 42.8496L42.7543 36.4998L49.3932 35.3581Z"/>
</mask>
<path d="M1.21509 0.832031C0.909401 0.832031 0.616237 0.948136 0.400085 1.1548C0.183933 1.36147 0.0625 1.64177 0.0625 1.93404V40.8351C0.0625 41.1274 0.183933 41.4077 0.400085 41.6144C0.616237 41.821 0.909401 41.9371 1.21509 41.9371H10.9498L12.6326 50.9252C12.6876 51.2121 12.859 51.4667 13.1094 51.6335C13.3598 51.8003 13.669 51.8657 13.9696 51.8156L43.5104 46.7463C43.5865 46.7309 43.6487 46.6934 43.7178 46.667C43.7709 46.6471 43.8239 46.6361 43.8746 46.6075C44.0239 46.5291 44.153 46.4199 44.2526 46.2879L52.8694 34.4368C52.9805 34.2752 53.0442 34.0879 53.0538 33.8946C53.0584 33.8439 53.063 33.8043 53.0584 33.7536C53.0584 33.7051 53.0676 33.6588 53.0584 33.6103L47.7588 5.37233C47.7032 5.08562 47.5317 4.83139 47.2815 4.66473C47.0312 4.49806 46.7224 4.43238 46.4218 4.4819L43.0563 5.05715V1.93404C43.0563 1.64177 42.9348 1.36147 42.7187 1.1548C42.5025 0.948136 42.2094 0.832031 41.9037 0.832031H1.21509ZM2.36767 3.03606H40.7488V5.45388L6.37406 11.3563C6.22529 11.3817 6.08324 11.4351 5.95608 11.5132C5.82891 11.5913 5.71913 11.6926 5.63303 11.8114C5.54693 11.9302 5.48621 12.064 5.45435 12.2053C5.42249 12.3466 5.42013 12.4925 5.44738 12.6346L10.5349 39.7331H2.36767V3.03606ZM45.698 6.84902L50.5919 32.9183L41.2144 34.5228C40.9139 34.5764 40.6476 34.7412 40.4733 34.9813C40.299 35.2214 40.2306 35.5176 40.2831 35.8055L41.9659 44.7737L14.7003 49.4529L7.91392 13.3289L45.6957 6.84682L45.698 6.84902ZM49.3932 35.3581L43.9461 42.8496L42.7543 36.4998L49.3932 35.3581Z" fill="#F4F4F9"/>
<path d="M10.9498 41.9371L109.242 23.5344L93.9649 -58.0629H10.9498V41.9371ZM12.6326 50.9252L-85.6595 69.3278L-85.6191 69.5438L-85.5777 69.7596L12.6326 50.9252ZM13.9696 51.8156L30.4144 150.454L30.6486 150.415L30.8826 150.375L13.9696 51.8156ZM43.5104 46.7463L60.4234 145.306L61.9094 145.051L63.3871 144.751L43.5104 46.7463ZM43.7178 46.667L8.67655 -46.9926L8.33594 -46.8651L7.99627 -46.7352L43.7178 46.667ZM43.8746 46.6075L-2.59065 -41.9418L-3.96462 -41.2209L-5.31556 -40.4576L43.8746 46.6075ZM44.2526 46.2879L124.091 106.503L124.618 105.804L125.133 105.095L44.2526 46.2879ZM52.8694 34.4368L133.75 93.2441L134.525 92.1781L135.272 91.092L52.8694 34.4368ZM53.0538 33.8946L-46.5352 24.8373L-46.722 26.8912L-46.8239 28.951L53.0538 33.8946ZM53.0584 33.7536H-46.9416V38.2916L-46.5306 42.8109L53.0584 33.7536ZM53.0584 33.6103L-45.2257 52.0559L-45.2035 52.1738L-45.1811 52.2917L53.0584 33.6103ZM47.7588 5.37233L146.043 -13.0732L145.987 -13.3686L145.93 -13.6637L47.7588 5.37233ZM46.4218 4.4819L30.1632 -94.1875L29.8684 -94.139L29.5738 -94.0886L46.4218 4.4819ZM43.0563 5.05715H-56.9437V123.6L59.9043 103.628L43.0563 5.05715ZM2.36767 3.03606V-96.9639H-97.6323V3.03606H2.36767ZM40.7488 3.03606H140.749V-96.9639H40.7488V3.03606ZM40.7488 5.45388L57.6718 104.012L140.749 89.7466V5.45388H40.7488ZM6.37406 11.3563L23.2603 109.92L23.2787 109.917L23.2971 109.914L6.37406 11.3563ZM5.44738 12.6346L103.73 -5.81719L103.695 -6.00758L103.658 -6.19783L5.44738 12.6346ZM10.5349 39.7331V139.733H131.056L108.818 21.2813L10.5349 39.7331ZM2.36767 39.7331H-97.6323V139.733H2.36767V39.7331ZM45.698 6.84902L143.981 -11.6013L138.035 -43.2778L114.71 -65.5203L45.698 6.84902ZM50.5919 32.9183L67.4573 131.486L167.625 114.347L148.875 14.4679L50.5919 32.9183ZM41.2144 34.5228L24.349 -64.0447L23.9938 -63.984L23.6391 -63.9206L41.2144 34.5228ZM40.2831 35.8055L-58.0947 53.7441L-58.0488 53.9959L-58.0016 54.2475L40.2831 35.8055ZM41.9659 44.7737L58.88 143.333L158.981 126.154L140.251 26.3317L41.9659 44.7737ZM14.7003 49.4529L-83.5804 67.9163L-65.4053 164.662L31.6145 148.012L14.7003 49.4529ZM7.91392 13.3289L-8.99556 -85.2311L-109.124 -68.0525L-90.3668 31.7923L7.91392 13.3289ZM45.6957 6.84682L114.708 -65.5225L78.3297 -100.213L28.7862 -91.7132L45.6957 6.84682ZM49.3932 35.3581L130.273 94.1666L275.024 -104.911L32.445 -63.1952L49.3932 35.3581ZM43.9461 42.8496L-54.3378 61.2962L-11.558 289.229L124.826 101.658L43.9461 42.8496ZM42.7543 36.4998L25.8061 -62.0535L-74.2592 -44.8454L-55.5296 54.9464L42.7543 36.4998ZM1.21509 -99.168C-24.2007 -99.168 -49.4284 -89.5566 -68.7071 -71.1238L69.5073 73.4334C50.6609 91.4529 26.0195 100.832 1.21509 100.832V-99.168ZM-68.7071 -71.1238C-88.1384 -52.5451 -99.9375 -26.3646 -99.9375 1.93404H100.062C100.062 29.6482 88.5062 55.2681 69.5073 73.4334L-68.7071 -71.1238ZM-99.9375 1.93404V40.8351H100.062V1.93404H-99.9375ZM-99.9375 40.8351C-99.9375 69.1334 -88.1386 95.314 -68.7071 113.893L69.5073 -30.6642C88.5065 -12.4986 100.062 13.1213 100.062 40.8351H-99.9375ZM-68.7071 113.893C-49.4278 132.326 -24.1998 141.937 1.21509 141.937V-58.0629C26.0186 -58.0629 50.6603 -48.6843 69.5073 -30.6642L-68.7071 113.893ZM1.21509 141.937H10.9498V-58.0629H1.21509V141.937ZM-87.3423 60.3398L-85.6595 69.3278L110.925 32.5225L109.242 23.5344L-87.3423 60.3398ZM-85.5777 69.7596C-80.3078 97.2391 -64.1488 120.328 -42.3215 134.865L68.5404 -31.5976C89.8668 -17.3944 105.683 5.18514 110.843 32.0907L-85.5777 69.7596ZM-42.3215 134.865C-20.6333 149.309 5.43087 154.619 30.4144 150.454L-2.47521 -46.823C21.9071 -50.888 47.3529 -45.7082 68.5404 -31.5976L-42.3215 134.865ZM30.8826 150.375L60.4234 145.306L26.5974 -51.8131L-2.9434 -46.7438L30.8826 150.375ZM63.3871 144.751C73.5074 142.698 80.9657 139.511 83.3618 138.473C84.0026 138.196 84.5021 137.971 84.6405 137.909C85.0034 137.746 84.5529 137.948 84.4148 138.01C83.9006 138.239 81.9705 139.101 79.4394 140.069L7.99627 -46.7352C5.43066 -45.754 3.46685 -44.8775 2.91908 -44.6331C2.76428 -44.564 2.29706 -44.3539 2.64327 -44.5095C2.76496 -44.5643 3.24769 -44.7813 3.87158 -45.0515C6.20025 -46.0602 13.5894 -49.2212 23.6337 -51.2584L63.3871 144.751ZM78.7591 140.327C76.6121 141.13 74.9083 141.679 74.4967 141.812C73.3883 142.17 74.9204 141.677 75.6637 141.427C78.0192 140.635 84.9438 138.261 93.0648 133.673L-5.31556 -40.4576C2.75472 -45.0172 9.6274 -47.3719 11.9304 -48.1462C12.6475 -48.3872 14.1532 -48.8716 13.0185 -48.505C12.5804 -48.3635 10.8501 -47.8057 8.67655 -46.9926L78.7591 140.327ZM90.3399 135.157C103.311 128.35 114.922 118.66 124.091 106.503L-35.5857 -13.9271C-26.6161 -25.8198 -15.2634 -35.292 -2.59065 -41.9418L90.3399 135.157ZM125.133 105.095L133.75 93.2441L-28.0114 -24.3705L-36.6281 -12.5194L125.133 105.095ZM135.272 91.092C145.736 75.8726 151.992 57.827 152.932 38.8383L-46.8239 28.951C-45.9032 10.3488 -39.7749 -7.3223 -29.5332 -22.2184L135.272 91.092ZM152.643 42.952C152.406 45.5586 153.644 35.6579 152.647 24.6963L-46.5306 42.8109C-47.5183 31.9506 -46.2889 22.1293 -46.5352 24.8373L152.643 42.952ZM153.058 33.7536C153.058 36.7575 152.917 39.0978 152.877 39.7521C152.866 39.9483 152.832 40.4736 152.858 40.0623C152.868 39.9083 152.906 39.3078 152.944 38.5408C153.08 35.7407 153.497 26.4931 151.298 14.9289L-45.1811 52.2917C-47.371 40.776 -46.9539 31.5758 -46.82 28.8231C-46.7833 28.068 -46.7456 27.4793 -46.7366 27.3372C-46.7111 26.9377 -46.7455 27.4749 -46.7581 27.683C-46.7991 28.3611 -46.9416 30.7254 -46.9416 33.7536H153.058ZM151.342 15.1648L146.043 -13.0732L-50.5253 23.8179L-45.2257 52.0559L151.342 15.1648ZM145.93 -13.6637C140.618 -41.0591 124.483 -64.0674 102.712 -78.5663L-8.14949 87.8958C-29.4195 73.7302 -45.2117 51.2304 -50.4126 24.4083L145.93 -13.6637ZM102.712 -78.5663C81.0788 -92.9741 55.0903 -98.295 30.1632 -94.1875L62.6804 103.151C38.3544 107.16 12.9836 101.97 -8.14949 87.8958L102.712 -78.5663ZM29.5738 -94.0886L26.2083 -93.5134L59.9043 103.628L63.2698 103.052L29.5738 -94.0886ZM143.056 5.05715V1.93404H-56.9437V5.05715H143.056ZM143.056 1.93404C143.056 -26.3645 131.257 -52.545 111.826 -71.1238L-26.3885 73.4334C-45.3876 55.2679 -56.9437 29.648 -56.9437 1.93404H143.056ZM111.826 -71.1238C92.5471 -89.5566 67.3194 -99.168 41.9037 -99.168V100.832C17.0994 100.832 -7.54206 91.4529 -26.3885 73.4334L111.826 -71.1238ZM41.9037 -99.168H1.21509V100.832H41.9037V-99.168ZM2.36767 103.036H40.7488V-96.9639H2.36767V103.036ZM-59.2512 3.03606V5.45388H140.749V3.03606H-59.2512ZM23.8257 -93.1038L-10.549 -87.2014L23.2971 109.914L57.6718 104.012L23.8257 -93.1038ZM-10.5122 -87.2077C-23.0739 -85.0556 -35.2693 -80.5222 -46.3808 -73.6974L58.293 96.7238C47.4358 103.392 35.5245 107.819 23.2603 109.92L-10.5122 -87.2077ZM-46.3808 -73.6974C-57.5003 -66.8678 -67.4009 -57.8206 -75.3314 -46.8806L86.5975 70.5034C78.8392 81.2059 69.1581 90.0504 58.293 96.7238L-46.3808 -73.6974ZM-75.3314 -46.8806C-83.2702 -35.9293 -89.0407 -23.3407 -92.0957 -9.79461L103.004 34.2052C100.013 47.4687 94.364 59.7896 86.5975 70.5034L-75.3314 -46.8806ZM-92.0957 -9.79461C-95.1524 3.75924 -95.3829 17.8057 -92.7633 31.467L103.658 -6.19783C106.223 7.17924 105.997 20.9339 103.004 34.2052L-92.0957 -9.79461ZM-92.8355 31.0864L-87.748 58.1849L108.818 21.2813L103.73 -5.81719L-92.8355 31.0864ZM10.5349 -60.2669H2.36767V139.733H10.5349V-60.2669ZM102.368 39.7331V3.03606H-97.6323V39.7331H102.368ZM-52.5852 25.2994L-47.6913 51.3686L148.875 14.4679L143.981 -11.6013L-52.5852 25.2994ZM33.7264 -65.6493L24.349 -64.0447L58.0799 133.09L67.4573 131.486L33.7264 -65.6493ZM23.6391 -63.9206C-1.29976 -59.4682 -24.605 -45.5922 -40.4488 -23.7692L121.395 93.7318C105.9 115.075 83.1276 128.621 58.7898 132.966L23.6391 -63.9206ZM-40.4488 -23.7692C-56.4223 -1.76755 -63.1234 26.1663 -58.0947 53.7441L138.661 17.867C143.585 44.8689 137.02 72.2104 121.395 93.7318L-40.4488 -23.7692ZM-58.0016 54.2475L-56.3188 63.2157L140.251 26.3317L138.568 17.3635L-58.0016 54.2475ZM25.0518 -53.7855L-2.21377 -49.1063L31.6145 148.012L58.88 143.333L25.0518 -53.7855ZM112.981 30.9894L106.195 -5.13462L-90.3668 31.7923L-83.5804 67.9163L112.981 30.9894ZM24.8234 111.889L62.6052 105.407L28.7862 -91.7132L-8.99556 -85.2311L24.8234 111.889ZM-23.3165 79.2162L-23.3142 79.2184L114.71 -65.5203L114.708 -65.5225L-23.3165 79.2162ZM-31.4868 -23.4503L-36.9339 -15.9589L124.826 101.658L130.273 94.1666L-31.4868 -23.4503ZM142.23 24.403L141.038 18.0532L-55.5296 54.9464L-54.3378 61.2962L142.23 24.403ZM59.7025 135.053L66.3413 133.911L32.445 -63.1952L25.8061 -62.0535L59.7025 135.053Z" fill="#F4F4F9" mask="url(#path-1-inside-1_357_382)"/>
</g>
<defs>
<clipPath id="clip0_357_382">
<rect width="54" height="52" fill="white"/>
</clipPath>
</defs>
</svg>
