<svg width="83" height="82" viewBox="0 0 83 82" fill="none" xmlns="http://www.w3.org/2000/svg">
<rect x="0.406738" width="81.6616" height="81.6616" rx="5.11027" fill="#F0F5FF"/>
<path d="M36.9031 40.0196H40.4256C42.3629 40.0196 44.2209 40.7892 45.5908 42.1591C46.9607 43.529 47.7303 45.3869 47.7303 47.3243H36.3658L36.3675 48.9475H49.3536V47.3243C49.3484 45.5971 48.8494 43.9073 47.9154 42.4545H52.6001C54.1345 42.4541 55.6376 42.8886 56.9351 43.7077C58.2326 44.5268 59.2713 45.697 59.9308 47.0824C56.0917 52.1486 49.8763 55.4406 42.8605 55.4406C38.3787 55.4406 34.5819 54.4829 31.4977 52.8028V37.6999C33.4725 37.9828 35.3375 38.7831 36.9031 40.0196ZM28.2511 35.9614C28.6487 35.9615 29.0325 36.1074 29.3296 36.3716C29.6267 36.6358 29.8165 36.9999 29.863 37.3948L29.8744 37.5847V52.1941C29.8744 52.6246 29.7034 53.0375 29.399 53.3419C29.0945 53.6463 28.6817 53.8173 28.2511 53.8173H25.0046C24.5741 53.8173 24.1612 53.6463 23.8568 53.3419C23.5524 53.0375 23.3813 52.6246 23.3813 52.1941V37.5847C23.3813 37.1542 23.5524 36.7413 23.8568 36.4369C24.1612 36.1324 24.5741 35.9614 25.0046 35.9614H28.2511ZM43.9091 27.1552L44.4838 27.7315L45.0584 27.1568C45.4347 26.7774 45.8822 26.4759 46.3753 26.2699C46.8684 26.0638 47.3974 25.9572 47.9318 25.9561C48.4662 25.955 48.9956 26.0594 49.4895 26.2635C49.9834 26.4675 50.4322 26.7671 50.81 27.1451C51.1879 27.523 51.4874 27.9719 51.6913 28.4659C51.8952 28.9598 51.9995 29.4892 51.9982 30.0237C51.997 30.5581 51.8902 31.087 51.684 31.58C51.4778 32.0731 51.1762 32.5205 50.7966 32.8967L44.4838 39.208L38.1693 32.8935C37.7898 32.5172 37.4884 32.0696 37.2823 31.5765C37.0762 31.0834 36.9696 30.5545 36.9685 30.0201C36.9674 29.4857 37.0719 28.9563 37.2759 28.4624C37.48 27.9684 37.7796 27.5197 38.1575 27.1418C38.5354 26.764 38.9843 26.4645 39.4783 26.2606C39.9723 26.0567 40.5017 25.9524 41.0361 25.9536C41.5705 25.9549 42.0994 26.0617 42.5925 26.2679C43.0855 26.4741 43.533 26.7756 43.9091 27.1552Z" fill="black"/>
</svg>
