<svg width="74" height="74" viewBox="0 0 74 74" fill="none" xmlns="http://www.w3.org/2000/svg">
<path d="M25.9549 10.3337L34.6437 1.64503C35.9453 0.343259 38.056 0.343259 39.3577 1.64503L48.0463 10.3337H60.334C62.175 10.3337 63.6673 11.8261 63.6673 13.667V25.9547L72.356 34.6434C73.6577 35.9451 73.6577 38.0558 72.356 39.3574L63.6673 48.0461V60.3338C63.6673 62.1748 62.175 63.6671 60.334 63.6671H48.0463L39.3577 72.3558C38.056 73.6574 35.9453 73.6574 34.6437 72.3558L25.9549 63.6671H13.6673C11.8263 63.6671 10.3339 62.1748 10.3339 60.3338V48.0461L1.64527 39.3574C0.343504 38.0558 0.343504 35.9451 1.64527 34.6434L10.3339 25.9547V13.667C10.3339 11.8261 11.8263 10.3337 13.6673 10.3337H25.9549ZM17.0006 17.0004V28.7161L8.71634 37.0004L17.0006 45.2848V57.0004H28.7163L37.0007 65.2848L45.285 57.0004H57.0007V45.2848L65.285 37.0004L57.0007 28.7161V17.0004H45.285L37.0007 8.71609L28.7163 17.0004H17.0006ZM37.0007 50.3338C29.6368 50.3338 23.6673 44.3641 23.6673 37.0004C23.6673 29.6366 29.6368 23.667 37.0007 23.667C44.3643 23.667 50.334 29.6366 50.334 37.0004C50.334 44.3641 44.3643 50.3338 37.0007 50.3338ZM37.0007 43.6671C40.6827 43.6671 43.6673 40.6824 43.6673 37.0004C43.6673 33.3184 40.6827 30.3338 37.0007 30.3338C33.3187 30.3338 30.334 33.3184 30.334 37.0004C30.334 40.6824 33.3187 43.6671 37.0007 43.6671Z" fill="white"/>
</svg>
