<?xml version="1.0" encoding="UTF-8"?>
<svg version="1.1" xmlns="http://www.w3.org/2000/svg" width="500" height="500">
<path d="M0 0 C12.26416738 -0.61025552 24.24423946 4.25374481 33.3125 12.37890625 C43.16504846 22.507391 46.17403442 33.80959015 46.1015625 47.59375 C45.74584217 53.14660465 44.35826269 58.21706837 41.87109375 63.19140625 C52.43109375 61.54140625 62.99109375 59.89140625 73.87109375 58.19140625 C73.87109375 68.09140625 73.87109375 77.99140625 73.87109375 88.19140625 C85.75109375 88.19140625 97.63109375 88.19140625 109.87109375 88.19140625 C109.87109375 96.44140625 109.87109375 104.69140625 109.87109375 113.19140625 C97.99109375 113.19140625 86.11109375 113.19140625 73.87109375 113.19140625 C73.93881162 120.99997746 74.00934412 128.80765128 74.10663605 136.61576843 C74.15115391 140.25245022 74.19061776 143.8890206 74.2175293 147.52587891 C74.24368778 151.03390976 74.28417641 154.54151823 74.33428001 158.04928589 C74.35889262 160.02763271 74.36896098 162.00614338 74.3787384 163.98461914 C74.44548492 174.62325612 74.44548492 174.62325612 79.2870636 183.83544922 C82.96268304 186.98184262 87.51138049 186.44990078 92.08203125 186.42578125 C95.89246081 186.10557709 98.44144609 184.83763713 101.87109375 183.19140625 C104.56640625 183.09765625 104.56640625 183.09765625 106.87109375 183.19140625 C108.05068069 186.41599897 109.21243506 189.64674061 110.37109375 192.87890625 C110.70496094 193.79091797 111.03882813 194.70292969 111.3828125 195.64257812 C111.85654297 196.97192383 111.85654297 196.97192383 112.33984375 198.328125 C112.63310547 199.13983154 112.92636719 199.95153809 113.22851562 200.7878418 C113.91435711 203.3532329 113.98629171 205.54802444 113.87109375 208.19140625 C100.709479 215.49575789 86.88461134 218.70580644 71.87109375 215.19140625 C72.48984375 216.32578125 73.10859375 217.46015625 73.74609375 218.62890625 C78.45961642 228.17295393 79.45567414 239.05364132 76.74609375 249.37890625 C73.94476019 257.5341904 68.99632468 264.30316643 61.87109375 269.19140625 C58.93359375 270.56640625 58.93359375 270.56640625 56.87109375 271.19140625 C56.87109375 271.85140625 56.87109375 272.51140625 56.87109375 273.19140625 C57.48855469 273.33835937 58.10601562 273.4853125 58.7421875 273.63671875 C69.18002111 276.40107651 78.4641132 282.25947133 84.34375 291.5078125 C91.76518436 305.33374999 91.20284337 320.41147655 86.87109375 335.19140625 C82.49034161 346.57825489 75.64767801 353.55850942 64.87109375 359.19140625 C58.95203479 361.60719973 53.17270885 363.17682715 46.87109375 364.19140625 C46.87331436 365.21426727 46.87553497 366.2371283 46.87782288 367.29098511 C46.8980651 376.91471903 46.91307112 386.53844866 46.92290592 396.16219902 C46.92813199 401.11025757 46.93522466 406.05829898 46.9465332 411.00634766 C46.95737185 415.77847589 46.96337267 420.55058761 46.96597099 425.3227272 C46.96782347 427.1464476 46.97144071 428.97016707 46.97682381 430.79388046 C46.98404718 433.341611 46.98508414 435.88927264 46.98461914 438.43701172 C46.98821442 439.19658173 46.99180969 439.95615173 46.99551392 440.73873901 C46.98514591 445.96330193 46.98514591 445.96330193 45.87109375 448.19140625 C34.82301591 448.21454133 23.7749438 448.23232731 12.72684669 448.24321842 C7.59718599 448.24844469 2.46754181 448.25553771 -2.66210938 448.2668457 C-7.60930164 448.27768365 -12.55647797 448.28368502 -17.50368118 448.28628349 C-19.39438757 448.2881361 -21.28509306 448.29175358 -23.17579269 448.29713631 C-25.81692158 448.30435875 -28.45798398 448.30539668 -31.09912109 448.30493164 C-32.28055443 448.31032455 -32.28055443 448.31032455 -33.4858551 448.31582642 C-38.90080193 448.30545841 -38.90080193 448.30545841 -41.12890625 447.19140625 C-41.12890625 370.63140625 -41.12890625 294.07140625 -41.12890625 215.19140625 C-43.76890625 215.19140625 -46.40890625 215.19140625 -49.12890625 215.19140625 C-69.22969 211.98203742 -86.01745867 202.59301238 -98.12890625 186.19140625 C-96.64869 182.91698849 -94.77497426 180.34416673 -92.50390625 177.56640625 C-91.80007812 176.70015625 -91.09625 175.83390625 -90.37109375 174.94140625 C-89.26121094 173.58015625 -89.26121094 173.58015625 -88.12890625 172.19140625 C-86.62704441 170.31789724 -85.12695502 168.44296557 -83.62890625 166.56640625 C-82.46223958 165.10807292 -81.29557292 163.64973958 -80.12890625 162.19140625 C-76.47782561 162.68844412 -74.58764944 163.17989525 -72.31640625 166.12890625 C-70.12890625 169.19140625 -70.12890625 169.19140625 -70.12890625 171.19140625 C-69.54625 171.46210938 -68.96359375 171.7328125 -68.36328125 172.01171875 C-66.13973632 173.18568828 -64.34149038 174.50120486 -62.37890625 176.06640625 C-51.16568994 184.47631849 -37.87251957 187.34129732 -23.96875 185.69140625 C-16.84544892 184.43723495 -12.84971775 182.6156298 -8.2578125 176.91015625 C-6.00227139 173.47611443 -5.93871079 170.31334329 -5.87890625 166.31640625 C-5.853125 165.28773438 -5.82734375 164.2590625 -5.80078125 163.19921875 C-6.17133311 159.80249332 -7.26420609 158.00808491 -9.12890625 155.19140625 C-9.12890625 154.53140625 -9.12890625 153.87140625 -9.12890625 153.19140625 C-16.34504858 149.52767059 -23.54959224 146.96509592 -31.41796875 145.11328125 C-32.54643219 144.84698914 -32.54643219 144.84698914 -33.69769287 144.57531738 C-36.82564262 143.84358811 -39.95492703 143.11956943 -43.09033203 142.42041016 C-59.63481309 138.70407264 -77.05141576 132.99293175 -87.00390625 118.25390625 C-93.59079622 106.69277868 -94.82937297 92.8847104 -92.00390625 80.00390625 C-88.50584475 67.61357625 -80.86350867 58.81740989 -69.796875 52.5390625 C-60.85091734 48.02024055 -51.19213168 45.19140625 -41.12890625 45.19140625 C-41.11472656 44.464375 -41.10054687 43.73734375 -41.0859375 42.98828125 C-40.48712124 30.36458706 -36.04895819 20.20806525 -27.12890625 11.19140625 C-19.35168539 4.67763282 -10.05317691 0.90386361 0 0 Z M40.87109375 63.19140625 C40.09047799 64.40136068 39.34733877 65.63555639 38.62109375 66.87890625 C32.23698794 77.28059589 22.21702052 83.48616709 10.6328125 86.71484375 C-0.72278968 88.67436775 -12.73827946 85.28348509 -22.25390625 79.06640625 C-24.42218157 77.53352296 -26.2480219 76.0722906 -28.12890625 74.19140625 C-38.01129067 73.18085698 -47.13441955 73.75982666 -55.06640625 80.06640625 C-58.81701723 83.59996798 -59.9237455 86.37915294 -60.50390625 91.50390625 C-59.9129991 97.31449322 -57.99830252 101.46580969 -53.69140625 105.44140625 C-43.0711619 110.65836839 -31.11731168 112.58148334 -19.58984375 114.81445312 C-3.61630275 118.0640593 12.11573227 123.41657512 21.87109375 137.19140625 C29.9326558 150.85298469 30.04502622 165.42896938 26.86328125 180.51953125 C25.5163927 185.50407942 23.43927661 189.74158447 20.87109375 194.19140625 C20.19620386 195.52059617 19.52685917 196.85267777 18.87109375 198.19140625 C20.11503906 198.25199219 21.35898438 198.31257812 22.640625 198.375 C31.40251949 198.81243461 40.14368452 199.26963494 48.87109375 200.19140625 C48.52175781 199.32257813 48.17242187 198.45375 47.8125 197.55859375 C47.35746094 196.40617188 46.90242188 195.25375 46.43359375 194.06640625 C45.98113281 192.92945313 45.52867187 191.7925 45.0625 190.62109375 C43.16617573 185.16216685 42.74066057 180.02382719 42.66577148 174.26806641 C42.65587189 173.60394745 42.64597229 172.93982849 42.63577271 172.25558472 C42.60441788 170.08058118 42.57950433 167.90555586 42.5546875 165.73046875 C42.53409544 164.2144619 42.5130984 162.69846049 42.49171448 161.1824646 C42.43672624 157.20742224 42.38721523 153.23233008 42.33886719 149.25720215 C42.28848156 145.19486093 42.23288487 141.13259133 42.17773438 137.0703125 C42.07043748 129.11073621 41.96941229 121.15109851 41.87109375 113.19140625 C35.60109375 113.19140625 29.33109375 113.19140625 22.87109375 113.19140625 C22.87109375 104.94140625 22.87109375 96.69140625 22.87109375 88.19140625 C29.14109375 88.19140625 35.41109375 88.19140625 41.87109375 88.19140625 C41.87109375 79.94140625 41.87109375 71.69140625 41.87109375 63.19140625 C41.54109375 63.19140625 41.21109375 63.19140625 40.87109375 63.19140625 Z M-7.12890625 224.19140625 C-7.12890625 237.39140625 -7.12890625 250.59140625 -7.12890625 264.19140625 C-1.18890625 264.25328125 4.75109375 264.31515625 10.87109375 264.37890625 C12.72992188 264.40621826 14.58875 264.43353027 16.50390625 264.46166992 C18.00129551 264.47044369 19.498692 264.47808551 20.99609375 264.484375 C21.7540625 264.4997229 22.51203125 264.5150708 23.29296875 264.53088379 C29.39664746 264.53383338 34.94794464 263.47123683 39.89453125 259.61328125 C44.50190295 253.91398909 46.14025183 249.08945024 45.74609375 241.69140625 C44.9594298 235.09970488 43.21399397 231.04620225 37.87109375 226.81640625 C32.66211134 223.99487411 28.00823561 224.05640288 22.16796875 224.09375 C21.05349365 224.09526062 21.05349365 224.09526062 19.91650391 224.09680176 C17.1513514 224.10201849 14.38622096 224.11597975 11.62109375 224.12890625 C5.43359375 224.14953125 -0.75390625 224.17015625 -7.12890625 224.19140625 Z M-7.12890625 289.19140625 C-7.12890625 292.49140625 -7.12890625 295.79140625 -7.12890625 299.19140625 C10.03109375 299.52140625 27.19109375 299.85140625 44.87109375 300.19140625 C45.20109375 311.08140625 45.53109375 321.97140625 45.87109375 333.19140625 C50.84402794 330.70493916 52.37879185 328.00735805 54.87109375 323.19140625 C55.78776042 320.77473958 55.78776042 320.77473958 55.87109375 318.19140625 C55.92136719 317.53527344 55.97164062 316.87914062 56.0234375 316.203125 C56.33961225 308.88051789 54.70021519 303.04268379 50.74609375 296.87890625 C42.79934352 289.45042234 33.04788157 289.02809815 22.65625 289.09375 C21.37263832 289.09587242 21.37263832 289.09587242 20.06309509 289.09803772 C17.35322444 289.10359635 14.64343907 289.116141 11.93359375 289.12890625 C10.08658974 289.1339266 8.23958443 289.13848857 6.39257812 289.14257812 C1.88538424 289.1535522 -2.62174659 289.17078795 -7.12890625 289.19140625 Z " fill="#000000" transform="translate(106.12890625,31.80859375)"/>
<path d="M0 0 C10.89 0 21.78 0 33 0 C33 57.75 33 115.5 33 175 C22.77 175 12.54 175 2 175 C2 188.86 2 202.72 2 217 C14.21 217 26.42 217 39 217 C39 246.7 39 276.4 39 307 C26.79 307 14.58 307 2 307 C2 313.27 2 319.54 2 326 C-8.89 326 -19.78 326 -31 326 C-31.495 318.575 -31.495 318.575 -32 311 C-33.2375 312.52625 -34.475 314.0525 -35.75 315.625 C-43.52864657 324.25978692 -53.541952 328.39190505 -64.98828125 329.21484375 C-79.06429167 329.63628119 -91.46997157 326.34692517 -102.28125 317.03515625 C-115.71691181 303.16025165 -119.97662885 283.1068861 -120.04345703 264.39892578 C-119.67709223 244.17476549 -115.73973772 225.33998704 -101.41796875 210.2265625 C-90.75914839 200.41149367 -78.12951531 198.01447696 -64 198 C-52.65071996 198.6966634 -43.27893442 202.12491604 -35 210 C-33.515 211.98 -33.515 211.98 -32 214 C-31.67 202.12 -31.34 190.24 -31 178 C-35.29 178 -39.58 178 -44 178 C-56.26194651 176.6375615 -67.34856351 171.27772953 -75.19140625 161.625 C-89.57212497 140.75276894 -91.12903737 115.39740976 -87 91 C-85.99256214 86.50349985 -84.69506032 82.28225766 -83 78 C-82.66355469 77.13375 -82.32710938 76.2675 -81.98046875 75.375 C-76.77519419 63.60335435 -67.40254518 54.99805703 -55.67578125 50.01171875 C-42.79898395 45.52080267 -26.96904345 45.4425384 -14.5625 51.3125 C-8.90156284 54.43704324 -4.91751688 57.77664416 -1 63 C-0.67 42.21 -0.34 21.42 0 0 Z M-48 83 C-53.79740229 92.49895069 -55.34849983 101.36135227 -55.3125 112.3125 C-55.32861328 113.28123047 -55.34472656 114.24996094 -55.36132812 115.24804688 C-55.36840448 125.85550362 -53.26507221 135.92409384 -46 144 C-38.13601389 150.22565567 -30.83267783 150.60021896 -21 150 C-15.53113505 148.90966115 -10.56594992 146.33696612 -7 142 C1.54553569 128.54793664 2.63960975 113.32735329 -0.25390625 97.921875 C-2.45998344 89.28236853 -6.57848069 82.99391954 -14 78 C-24.76006355 71.71019249 -39.48278699 74.00960849 -48 83 Z M-79 234 C-84.79740229 243.49895069 -86.34849983 252.36135227 -86.3125 263.3125 C-86.32861328 264.28123047 -86.34472656 265.24996094 -86.36132812 266.24804688 C-86.36840448 276.85550362 -84.26507221 286.92409384 -77 295 C-71.22648682 299.57069793 -66.44197501 301.14048683 -59.0625 301.125 C-57.22365234 301.12886719 -57.22365234 301.12886719 -55.34765625 301.1328125 C-51.85506564 301.10818601 -51.85506564 301.10818601 -48 300 C-48 276.24 -48 252.48 -48 228 C-58.75571348 223.69771461 -70.80915054 225.35410335 -79 234 Z " fill="#000000" transform="translate(449,70)"/>
<path d="M0 0 C28.71 0 57.42 0 87 0 C87.185625 13.48875 87.37125 26.9775 87.5625 40.875 C87.62381104 45.13776855 87.68512207 49.40053711 87.74829102 53.79248047 C87.81628418 58.98852539 87.81628418 58.98852539 87.8467865 61.41921997 C87.86911323 63.12082451 87.89347198 64.8224031 87.91941833 66.5239563 C87.95827464 69.09780168 87.99072978 71.6716551 88.02172852 74.24560547 C88.04117822 75.38711972 88.04117822 75.38711972 88.06102085 76.55169487 C88.11402634 81.77194733 88.11402634 81.77194733 87 84 C75.95192216 84.02313508 64.90385005 84.04092106 53.85575294 84.05181217 C48.72609224 84.05703844 43.59644806 84.06413146 38.46679688 84.07543945 C33.51960461 84.0862774 28.57242828 84.09227877 23.62522507 84.09487724 C21.73451868 84.09672985 19.84381319 84.10034733 17.95311356 84.10573006 C15.31198467 84.1129525 12.67092227 84.11399043 10.02978516 84.11352539 C8.84835182 84.1189183 8.84835182 84.1189183 7.64305115 84.12442017 C2.22810432 84.11405216 2.22810432 84.11405216 0 83 C0 55.61 0 28.22 0 0 Z " fill="#AACBCD" transform="translate(65,396)"/>
<path d="M0 0 C10.89 0 21.78 0 33 0 C33.0825 2.536875 33.165 5.07375 33.25 7.6875 C33.78286277 18.33758228 35.5922853 28.90319556 43 37 C50.90797371 42.78849427 59.56444811 42.82549081 69 42 C75.48668547 40.19015555 79.81468643 36.85147535 83.74609375 31.453125 C87.36261857 24.37780542 88.55836822 17.28882799 89.1875 9.4375 C89.455625 6.323125 89.72375 3.20875 90 0 C100.89 0 111.78 0 123 0 C123.48436406 19.53601698 121.05156229 37.44570093 108.25 53 C95.44314297 66.10760514 79.11690099 71.07763584 61.1875 71.3125 C44.16569454 71.19284237 28.59270495 66.42173169 16.1796875 54.375 C4.86348986 42.04480615 0.45351789 27.98940498 -0.6875 11.625 C-0.73616211 10.93438477 -0.78482422 10.24376953 -0.83496094 9.53222656 C-1.03659071 6.01490727 -0.86616819 3.46467276 0 0 Z " fill="#000000" transform="translate(203,327)"/>
<path d="M0 0 C10.89 0 21.78 0 33 0 C33.2475 3.09375 33.495 6.1875 33.75 9.375 C34.83294367 20.82273588 36.9266812 30.18269847 46 38 C52.56861814 42.47449447 61.44152073 41.71521094 69 41 C75.76651199 39.38983851 80.2894004 35.82121589 84 30 C89.38791859 21.02013569 89.18834181 10.14572742 90 0 C100.89 0 111.78 0 123 0 C123.60398511 19.32752349 121.41381448 36.53109357 108.3125 51.8125 C98.21613458 62.25442555 83.78929745 69.63288978 69 70 C67.88109375 70.03867188 66.7621875 70.07734375 65.609375 70.1171875 C46.35441769 70.46798632 30.66176179 66.19592909 16.04296875 53.26953125 C4.29262532 41.25394304 -0.26728812 23.94714645 -0.1875 7.625 C-0.125625 5.10875 -0.06375 2.5925 0 0 Z " fill="#000000" transform="translate(227,180)"/>
<path d="M0 0 C12.26416738 -0.61025552 24.24423946 4.25374481 33.3125 12.37890625 C43.15749921 22.49963031 46.21544873 33.83534235 46.0859375 47.62109375 C45.4382882 58.38384759 40.376342 68.51558417 32.87109375 76.19140625 C25.35674838 81.87944504 18.12255626 85.44390778 8.87109375 87.19140625 C9.89571619 82.07316659 13.17734154 78.47225115 16.27734375 74.41210938 C18.78083288 71.03894887 20.47815911 68.50550117 20.87109375 64.19140625 C5.62288017 50.86162301 -12.15522457 46.55254281 -32.06640625 45.62890625 C-33.37834961 45.56413086 -33.37834961 45.56413086 -34.71679688 45.49804688 C-36.8540262 45.39293724 -38.99144863 45.2917664 -41.12890625 45.19140625 C-40.86591167 31.70695704 -36.69084789 20.85690683 -27.12890625 11.19140625 C-19.35168539 4.67763282 -10.05317691 0.90386361 0 0 Z " fill="#819191" transform="translate(106.12890625,31.80859375)"/>
<path d="M0 0 C12.21 0 24.42 0 37 0 C37 29.7 37 59.4 37 90 C24.79 90 12.58 90 0 90 C-1.80871461 88.19128539 -1.12635822 85.70986693 -1.13552856 83.30209351 C-1.13350433 82.48439484 -1.1314801 81.66669617 -1.12939453 80.82421875 C-1.13114685 79.96736481 -1.13289917 79.11051086 -1.13470459 78.22769165 C-1.13912417 75.3809408 -1.13618475 72.53425153 -1.1328125 69.6875 C-1.13348551 67.71834298 -1.13445551 65.74918603 -1.13571167 63.7800293 C-1.13718879 59.64729015 -1.13503364 55.51457258 -1.13037109 51.38183594 C-1.1246738 46.07175479 -1.12795273 40.76172419 -1.13394356 35.4516449 C-1.1375488 31.38374447 -1.13641076 27.31585611 -1.13381577 23.24795532 C-1.13314639 21.28943882 -1.13397527 19.33092124 -1.13629532 17.37240601 C-1.13882124 14.640168 -1.13498211 11.90801303 -1.12939453 9.17578125 C-1.13141876 8.35808258 -1.13344299 7.54038391 -1.13552856 6.69790649 C-1.11426246 1.11426246 -1.11426246 1.11426246 0 0 Z " fill="#284A62" transform="translate(451,287)"/>
<path d="M0 0 C7.52974139 -0.02290222 15.05936291 -0.04283138 22.58911133 -0.05493164 C25.15291757 -0.0599737 27.71672091 -0.06680714 30.28051758 -0.07543945 C33.95655021 -0.08751064 37.63254498 -0.09322942 41.30859375 -0.09765625 C42.46274277 -0.10281754 43.61689178 -0.10797882 44.80601501 -0.11329651 C46.3975515 -0.11340981 46.3975515 -0.11340981 48.02124023 -0.11352539 C48.96055893 -0.115746 49.89987762 -0.11796661 50.86766052 -0.12025452 C53 0 53 0 54 1 C54.15988491 3.51880517 54.25934225 6.01342266 54.31640625 8.53515625 C54.33718735 9.28840683 54.35796844 10.04165741 54.37937927 10.81773376 C54.44495425 13.2325599 54.50379621 15.64749798 54.5625 18.0625 C54.6056777 19.69597529 54.64929173 21.3294391 54.69335938 22.96289062 C54.80064362 26.97514464 54.90188821 30.98751164 55 35 C47.73735292 38.8846717 41.95508038 39.14211637 33.88671875 39.09765625 C32.91716751 39.0962413 31.94761627 39.09482635 30.94868469 39.09336853 C27.86159133 39.08778513 24.77457133 39.07523564 21.6875 39.0625 C19.59049584 39.05748286 17.49349054 39.05292032 15.39648438 39.04882812 C10.26427213 39.03867337 5.13221788 39.01909465 0 39 C0 26.13 0 13.26 0 0 Z " fill="#A9CACC" transform="translate(98,331)"/>
<path d="M0 0 C4.9961892 2.83184813 7.89529949 7.06089848 9.6875 12.4375 C10.42030473 19.20092725 9.89536781 24.91697372 5.6875 30.4375 C0.34546494 35.42009419 -4.72751837 36.81372299 -11.93359375 36.71875 C-17.20144422 36.09594994 -21.08112857 33.73368046 -24.6875 29.9375 C-28.68078436 23.7939856 -29.22130215 18.74539359 -28.3125 11.4375 C-26.16966935 5.73554721 -22.65966419 2.34356749 -17.3125 -0.5625 C-11.60664036 -2.46445321 -5.54103262 -2.46502212 0 0 Z " fill="#3D6C6F" transform="translate(316.3125,283.5625)"/>
<path d="M0 0 C4.4067042 2.74835085 6.93544944 5.9011236 8.875 10.75 C9.65562259 17.38529202 9.38690085 21.91359499 6.125 27.875 C2.2606846 32.59805216 -1.92573968 35.29150568 -8.04296875 36.1953125 C-13.77247839 36.49115637 -18.19606414 35.20835954 -22.875 31.875 C-26.47512658 28.45353975 -28.69809205 25.23263858 -29.078125 20.16796875 C-29.23955509 9.47322529 -29.23955509 9.47322529 -25.875 4.875 C-18.34981566 -2.32300241 -9.63955218 -4.94703091 0 0 Z " fill="#3D6C6F" transform="translate(230.875,284.125)"/>
<path d="M0 0 C4.31633181 3.18586395 7.91120739 6.79612218 9.625 11.9375 C10.13248917 18.15424229 10.3969833 23.70539413 6.625 28.9375 C2.83735277 32.90687778 -0.86048741 35.96435072 -6.375 36.9375 C-12.7577046 37.01062428 -17.39757107 36.20386765 -22.375 31.9375 C-27.13318635 26.78279812 -28.87254693 22.22816905 -28.6875 15.27734375 C-27.95849977 9.81895451 -25.43701508 5.58966525 -21.3125 2 C-15.13359193 -2.33838226 -7.06926422 -2.22550911 0 0 Z " fill="#3D6C6F" transform="translate(340.375,136.0625)"/>
<path d="M0 0 C4.26983098 3.12426657 7.52662579 6.93845545 9.5625 11.875 C10.4978256 18.97694903 9.90820248 24.15697042 5.5625 29.875 C1.02307816 34.41442184 -3.14328367 36.81494103 -9.671875 36.90625 C-15.64715405 36.50522456 -19.63401402 34.77725378 -23.87890625 30.3828125 C-28.1224898 25.52263988 -28.79673912 21.75005983 -28.71484375 15.5078125 C-28.12022691 9.86313999 -25.61707131 5.640056 -21.375 1.9375 C-15.17899327 -2.4128877 -7.06455694 -2.31203682 0 0 Z " fill="#3D6C70" transform="translate(254.4375,136.125)"/>
<path d="M0 0 C6.94753126 2.3561193 11.0747317 7.27817215 14.40234375 13.7109375 C19.25890983 26.88070032 18.83745333 43.63292647 13.9921875 56.72265625 C11.12427165 62.72923525 7.70500181 67.39558463 2 71 C1.01 71 0.02 71 -1 71 C-1.02320776 62.62868031 -1.04095803 54.25737414 -1.05181217 45.8860302 C-1.05702257 41.99855281 -1.06408665 38.1110975 -1.07543945 34.22363281 C-1.08633395 30.46945098 -1.09229072 26.71529033 -1.09487724 22.9610939 C-1.09671968 21.53143099 -1.10031746 20.10176918 -1.10573006 18.67211533 C-1.11302753 16.66407154 -1.1134088 14.65600627 -1.11352539 12.64794922 C-1.115746 11.50655487 -1.11796661 10.36516052 -1.12025452 9.18917847 C-1.00166976 6.04428241 -0.58900198 3.08838119 0 0 Z " fill="#29475D" transform="translate(402,298)"/>
<path d="M0 0 C0.99 0 1.98 0 3 0 C3 29.7 3 59.4 3 90 C-9.21 90 -21.42 90 -34 90 C-35.81115624 88.18884376 -35.11995376 85.70122499 -35.12442017 83.29098511 C-35.12082489 82.47171539 -35.11722961 81.65244568 -35.11352539 80.80834961 C-35.11367142 79.94988937 -35.11381744 79.09142914 -35.1139679 78.20695496 C-35.11326847 75.35539262 -35.1054747 72.50389475 -35.09765625 69.65234375 C-35.09579218 67.68079158 -35.09436822 65.70923895 -35.09336853 63.73768616 C-35.08954251 58.53773733 -35.07971152 53.33781625 -35.06866455 48.13787842 C-35.05845222 42.83606339 -35.05387129 37.5342439 -35.04882812 32.23242188 C-35.03808933 21.82160237 -35.02101191 11.41080349 -35 1 C-34.67 1 -34.34 1 -34 1 C-33.67 30.04 -33.34 59.08 -33 89 C-14.34000722 91.84192978 -14.34000722 91.84192978 1 87 C1.12512144 84.32297564 1.18606569 81.67047727 1.20532227 78.99194336 C1.21522186 78.15299026 1.22512146 77.31403717 1.23532104 76.44966125 C1.26703185 73.6630846 1.29173114 70.87649087 1.31640625 68.08984375 C1.33696752 66.16312708 1.35796376 64.23641501 1.37937927 62.30970764 C1.43468542 57.228177 1.48405688 52.14660508 1.53222656 47.06500244 C1.58237938 41.8837922 1.63809783 36.7026422 1.69335938 31.52148438 C1.80104537 21.34770767 1.902467 11.17387875 2 1 C1.34 0.67 0.68 0.34 0 0 Z " fill="#233B4E" transform="translate(485,287)"/>
<path d="M0 0 C10.16011656 -0.6626163 18.82909203 3.13701516 27 9 C28.36207115 10.30396232 29.70416133 11.63019794 31 13 C20.31248377 13.82211663 10.17096382 9.87020501 2 3 C1.34 2.01 0.68 1.02 0 0 Z " fill="#828F8F" transform="translate(78,106)"/>
<path d="M0 0 C0.33 0 0.66 0 1 0 C1 5.28 1 10.56 1 16 C-11.21 16 -23.42 16 -36 16 C-36 13.03 -36 10.06 -36 7 C-35.67 7 -35.34 7 -35 7 C-35 9.64 -35 12.28 -35 15 C-30.31842099 14.88204075 -25.63706712 14.75781451 -20.95581055 14.62768555 C-19.362107 14.58427854 -17.7683552 14.54260781 -16.17456055 14.50268555 C-13.88836092 14.44512193 -11.60240551 14.38138851 -9.31640625 14.31640625 C-8.2413961 14.29133751 -8.2413961 14.29133751 -7.14466858 14.26576233 C-3.78472618 14.44981346 -3.78472618 14.44981346 -1 13 C-0.76518307 10.81707226 -0.58636677 8.62796826 -0.4375 6.4375 C-0.35371094 5.23996094 -0.26992188 4.04242188 -0.18359375 2.80859375 C-0.09271484 1.41833984 -0.09271484 1.41833984 0 0 Z " fill="#314755" transform="translate(487,361)"/>
<path d="M0 0 C5.27710354 2.3439244 9.15080717 4.66965806 13 9 C4.42857143 9.14285714 4.42857143 9.14285714 1 8 C1.33 7.34 1.66 6.68 2 6 C1.34 5.01 0.68 4.02 0 3 C0 2.01 0 1.02 0 0 Z " fill="#7B8585" transform="translate(96,110)"/>
<path d="M0 0 C0.99 0.33 1.98 0.66 3 1 C2.3125 3.375 2.3125 3.375 1 6 C-1.5625 7.1875 -1.5625 7.1875 -4 8 C-4.33 8.66 -4.66 9.32 -5 10 C-5.33 9.34 -5.66 8.68 -6 8 C-4.02 5.36 -2.04 2.72 0 0 Z " fill="#7C8988" transform="translate(127,100)"/>
<path d="M0 0 C0 0.66 0 1.32 0 2 C-1.65 2.66 -3.3 3.32 -5 4 C-5 4.99 -5 5.98 -5 7 C-5.66 7 -6.32 7 -7 7 C-7 7.66 -7 8.32 -7 9 C-7.66 9 -8.32 9 -9 9 C-9.66 10.32 -10.32 11.64 -11 13 C-10.68033924 7.72559742 -7.60963971 4.56176651 -4 1 C-2 0 -2 0 0 0 Z " fill="#45686A" transform="translate(238,136)"/>
<path d="M0 0 C1.32 0.66 2.64 1.32 4 2 C2.576875 2.3403125 2.576875 2.3403125 1.125 2.6875 C-2.18944594 3.66178062 -2.18944594 3.66178062 -3.125 6.5 C-3.41375 7.325 -3.7025 8.15 -4 9 C-6.125 10.3125 -6.125 10.3125 -8 11 C-6.68206814 5.33289301 -4.51290803 3.33562767 0 0 Z " fill="#426666" transform="translate(297,284)"/>
<path d="M0 0 C0.33 0 0.66 0 1 0 C1.33 2.64 1.66 5.28 2 8 C1.01 8.66 0.02 9.32 -1 10 C-1.99 9.67 -2.98 9.34 -4 9 C-3.525625 8.62875 -3.05125 8.2575 -2.5625 7.875 C-0.47794198 5.37353038 -0.35378509 3.18406582 0 0 Z " fill="#90A9AB" transform="translate(151,358)"/>
<path d="M0 0 C2.31 0.33 4.62 0.66 7 1 C7.33 2.32 7.66 3.64 8 5 C2.25 3.375 2.25 3.375 0 0 Z " fill="#47696A" transform="translate(207,314)"/>
<path d="M0 0 C0.33 0 0.66 0 1 0 C1.3690205 10.55808656 1.3690205 10.55808656 -1 15 C-2.19126781 11.42619658 -1.7349445 9.49116698 -1.0625 5.8125 C-0.86785156 4.72582031 -0.67320312 3.63914062 -0.47265625 2.51953125 C-0.31667969 1.68808594 -0.16070312 0.85664063 0 0 Z " fill="#446366" transform="translate(325,296)"/>
<path d="M0 0 C0.33 0 0.66 0 1 0 C1.04898438 0.69867188 1.09796875 1.39734375 1.1484375 2.1171875 C1.22320312 3.02726562 1.29796875 3.93734375 1.375 4.875 C1.44460937 5.77992188 1.51421875 6.68484375 1.5859375 7.6171875 C1.79568132 10.17941903 1.79568132 10.17941903 4 12 C3.01 12.33 2.02 12.66 1 13 C0 12 0 12 -0.09765625 9.27734375 C-0.08605469 8.17519531 -0.07445312 7.07304687 -0.0625 5.9375 C-0.05347656 4.83277344 -0.04445312 3.72804688 -0.03515625 2.58984375 C-0.02355469 1.73519531 -0.01195312 0.88054687 0 0 Z " fill="#416465" transform="translate(202,295)"/>
<path d="M0 0 C0.99 0.33 1.98 0.66 3 1 C3 2.98 3 4.96 3 7 C2.34 7 1.68 7 1 7 C0.67 4.69 0.34 2.38 0 0 Z M-1 7 C-0.01 7.495 -0.01 7.495 1 8 C0.01 8.495 0.01 8.495 -1 9 C-1 8.34 -1 7.68 -1 7 Z " fill="#3A6564" transform="translate(261,147)"/>
</svg>
