<svg width="84" height="82" viewBox="0 0 84 82" fill="none" xmlns="http://www.w3.org/2000/svg">
<rect width="83.6616" height="81.6616" rx="5.11027" fill="#F0F5FF"/>
<path d="M32.9974 62.0808H50.6641C55.5224 62.0808 59.4974 58.2558 59.4974 53.5808V30.2058C59.4974 25.9558 56.4057 22.5558 52.2099 21.9183C51.3266 20.4308 49.7807 19.5808 48.0141 19.5808H35.6474C33.8807 19.5808 32.3349 20.4308 31.4516 21.9183C27.2557 22.5558 24.1641 25.9558 24.1641 30.2058V53.5808C24.1641 58.2558 28.1391 62.0808 32.9974 62.0808ZM35.2057 24.0433C35.2057 24.0433 35.4266 23.8308 35.6474 23.8308H48.2349L48.4557 24.0433V25.5308C48.4557 25.7433 48.2349 25.9558 48.0141 25.9558H35.6474C35.4266 25.9558 35.2057 25.7433 35.2057 25.5308V24.0433ZM28.5807 30.2058C28.5807 28.5058 29.4641 27.2308 30.7891 26.3808V26.5933C30.7891 26.8058 31.0099 27.0183 31.0099 27.2308C31.0099 27.2308 31.0099 27.4433 31.2307 27.4433C31.2307 27.6558 31.4516 27.8683 31.4516 27.8683L31.6724 28.0808C31.6724 28.2933 31.8932 28.2933 32.1141 28.5058L32.3349 28.7183L32.7766 29.1433L32.9974 29.3558C33.2182 29.3558 33.2182 29.5683 33.4391 29.5683C33.4391 29.5683 33.6599 29.5683 33.6599 29.7808C33.8807 29.7808 34.1016 29.9933 34.3224 29.9933H34.5432C34.9849 30.2058 35.2057 30.2058 35.6474 30.2058H49.3391C49.5599 30.2058 49.7807 30.2058 50.0016 29.9933C50.0016 29.9933 50.2224 29.9933 50.2224 29.7808C50.4432 29.7808 50.4432 29.5683 50.6641 29.5683L50.8849 29.3558C51.1057 29.3558 51.1057 29.1433 51.3266 28.9308L51.5474 28.7183L51.9891 28.2933L52.2099 28.0808C52.2099 27.8683 52.4307 27.8683 52.4307 27.6558C52.4307 27.6558 52.4307 27.4433 52.6516 27.4433C52.6516 27.2308 52.8724 27.0183 52.8724 26.8058V26.5933C54.1974 27.2308 55.0807 28.7183 55.0807 30.4183V53.7933C55.0807 56.1308 53.0932 58.0433 50.6641 58.0433H32.9974C30.5682 58.0433 28.5807 56.1308 28.5807 53.7933V30.2058Z" fill="black"/>
<path d="M35.2054 49.3308H39.6221C40.9471 49.3308 41.8304 48.4808 41.8304 47.2058C41.8304 45.9308 40.9471 45.0808 39.6221 45.0808H35.2054C33.8804 45.0808 32.9971 45.9308 32.9971 47.2058C32.9971 48.4808 33.8804 49.3308 35.2054 49.3308ZM35.2054 40.8308H48.4554C49.7804 40.8308 50.6637 39.9808 50.6637 38.7058C50.6637 37.4308 49.7804 36.5808 48.4554 36.5808H35.2054C33.8804 36.5808 32.9971 37.4308 32.9971 38.7058C32.9971 39.9808 33.8804 40.8308 35.2054 40.8308Z" fill="black"/>
</svg>
