<svg width="74" height="61" viewBox="0 0 74 61" fill="none" xmlns="http://www.w3.org/2000/svg">
<path d="M24.6663 55.9166H49.333C56.1163 55.9166 61.6663 51.3416 61.6663 45.7499V17.7916C61.6663 12.7083 57.3497 8.64158 51.4913 7.87908C50.258 6.09992 48.0997 5.08325 45.633 5.08325H28.3663C25.8997 5.08325 23.7413 6.09992 22.508 7.87908C16.6497 8.64158 12.333 12.7083 12.333 17.7916V45.7499C12.333 51.3416 17.883 55.9166 24.6663 55.9166ZM27.7497 10.4208C27.7497 10.4208 28.058 10.1666 28.3663 10.1666H45.9413L46.2497 10.4208V12.1999C46.2497 12.4541 45.9413 12.7083 45.633 12.7083H28.3663C28.058 12.7083 27.7497 12.4541 27.7497 12.1999V10.4208ZM18.4997 17.7916C18.4997 15.7583 19.733 14.2333 21.583 13.2166V13.4708C21.583 13.7249 21.8913 13.9791 21.8913 14.2333C21.8913 14.2333 21.8913 14.4874 22.1997 14.4874C22.1997 14.7416 22.508 14.9958 22.508 14.9958L22.8163 15.2499C22.8163 15.5041 23.1247 15.5041 23.433 15.7583L23.7413 16.0124L24.358 16.5208L24.6663 16.7749C24.9747 16.7749 24.9747 17.0291 25.283 17.0291C25.283 17.0291 25.5913 17.0291 25.5913 17.2833C25.8997 17.2833 26.208 17.5374 26.5163 17.5374H26.8247C27.4413 17.7916 27.7497 17.7916 28.3663 17.7916H47.483C47.7913 17.7916 48.0997 17.7916 48.408 17.5374C48.408 17.5374 48.7163 17.5374 48.7163 17.2833C49.0247 17.2833 49.0247 17.0291 49.333 17.0291L49.6413 16.7749C49.9497 16.7749 49.9497 16.5208 50.258 16.2666L50.5663 16.0124L51.183 15.5041L51.4913 15.2499C51.4913 14.9958 51.7997 14.9958 51.7997 14.7416C51.7997 14.7416 51.7997 14.4874 52.108 14.4874C52.108 14.2333 52.4163 13.9791 52.4163 13.7249V13.4708C54.2663 14.2333 55.4997 16.0124 55.4997 18.0458V46.0041C55.4997 48.7999 52.7247 51.0874 49.333 51.0874H24.6663C21.2747 51.0874 18.4997 48.7999 18.4997 46.0041V17.7916Z" fill="white"/>
<path d="M27.7503 40.6667H33.917C35.767 40.6667 37.0003 39.6501 37.0003 38.1251C37.0003 36.6001 35.767 35.5834 33.917 35.5834H27.7503C25.9003 35.5834 24.667 36.6001 24.667 38.1251C24.667 39.6501 25.9003 40.6667 27.7503 40.6667ZM27.7503 30.5001H46.2503C48.1003 30.5001 49.3337 29.4834 49.3337 27.9584C49.3337 26.4334 48.1003 25.4167 46.2503 25.4167H27.7503C25.9003 25.4167 24.667 26.4334 24.667 27.9584C24.667 29.4834 25.9003 30.5001 27.7503 30.5001Z" fill="white"/>
</svg>
