<svg width="75" height="65" viewBox="0 0 75 65" fill="none" xmlns="http://www.w3.org/2000/svg">
<path d="M56.7413 24.453L59.585 22.0155C60.1735 21.5055 60.5041 20.8138 60.5041 20.0926C60.5041 19.3713 60.1735 18.6796 59.585 18.1696C58.9966 17.6597 58.1985 17.3731 57.3663 17.3731C56.5341 17.3731 55.736 17.6597 55.1475 18.1696L52.335 20.6342C47.9555 17.698 42.5752 16.1049 37.0382 16.1049C31.5012 16.1049 26.1208 17.698 21.7413 20.6342L18.8975 18.1426C18.3049 17.6326 17.5029 17.3475 16.6677 17.35C15.8326 17.3526 15.0329 17.6425 14.4444 18.1561C13.856 18.6697 13.527 19.3648 13.53 20.0886C13.5329 20.8124 13.8674 21.5055 14.46 22.0155L17.335 24.4801C13.907 28.2651 12.0469 32.9391 12.0538 37.7509C12.0436 41.2052 12.9865 44.6115 14.8039 47.6858C16.6212 50.7601 19.2604 53.4132 22.5013 55.4239C25.7421 57.4347 29.4907 58.7447 33.4344 59.2448C37.3782 59.7449 41.4027 59.4205 45.1724 58.2987C48.9421 57.177 52.3477 55.2903 55.1051 52.7961C57.8626 50.3019 59.892 47.2725 61.024 43.9605C62.1561 40.6485 62.3581 37.1499 61.6131 33.7565C60.8681 30.3631 59.1977 27.1732 56.7413 24.453ZM37.0538 54.0009C33.3454 54.0009 29.7203 53.0478 26.6368 51.2623C23.5534 49.4767 21.1502 46.9388 19.7311 43.9695C18.3119 41.0002 17.9406 37.7329 18.6641 34.5807C19.3875 31.4285 21.1733 28.533 23.7955 26.2604C26.4178 23.9878 29.7587 22.4401 33.3958 21.8131C37.033 21.1861 40.803 21.5079 44.2291 22.7379C47.6552 23.9678 50.5836 26.0506 52.6438 28.7229C54.7041 31.3952 55.8038 34.5369 55.8038 37.7509C55.8038 42.0607 53.8284 46.1939 50.312 49.2414C46.7957 52.2888 42.0266 54.0009 37.0538 54.0009ZM30.8038 13.3759H43.3038C44.1326 13.3759 44.9274 13.0906 45.5135 12.5826C46.0995 12.0747 46.4288 11.3859 46.4288 10.6676C46.4288 9.94927 46.0995 9.26039 45.5135 8.75248C44.9274 8.24457 44.1326 7.95923 43.3038 7.95923H30.8038C29.975 7.95923 29.1801 8.24457 28.5941 8.75248C28.008 9.26039 27.6788 9.94927 27.6788 10.6676C27.6788 11.3859 28.008 12.0747 28.5941 12.5826C29.1801 13.0906 29.975 13.3759 30.8038 13.3759ZM40.1788 29.6259C40.1788 28.9076 39.8496 28.2187 39.2635 27.7108C38.6774 27.2029 37.8826 26.9176 37.0538 26.9176C36.225 26.9176 35.4301 27.2029 34.8441 27.7108C34.258 28.2187 33.9288 28.9076 33.9288 29.6259V34.7446C33.2212 35.2931 32.7224 36.0149 32.4985 36.8145C32.2746 37.614 32.3361 38.4536 32.6749 39.2222C33.0136 39.9908 33.6136 40.6522 34.3956 41.1188C35.1775 41.5853 36.1045 41.8351 37.0538 41.8351C38.0031 41.8351 38.9301 41.5853 39.712 41.1188C40.4939 40.6522 41.094 39.9908 41.4327 39.2222C41.7715 38.4536 41.833 37.614 41.609 36.8145C41.3851 36.0149 40.8864 35.2931 40.1788 34.7446V29.6259Z" fill="white"/>
</svg>
