<svg width="66" height="72" viewBox="0 0 66 72" fill="none" xmlns="http://www.w3.org/2000/svg">
<rect width="65.3283" height="71.0801" rx="5.11027" fill="#F0F5FF"/>
<path d="M46.3142 28.2721L48.2859 26.3596C48.6939 25.9594 48.9231 25.4167 48.9231 24.8508C48.9231 24.2849 48.6939 23.7422 48.2859 23.3421C47.8779 22.9419 47.3245 22.7171 46.7475 22.7171C46.1705 22.7171 45.6172 22.9419 45.2092 23.3421L43.2592 25.2758C40.2227 22.972 36.4924 21.722 32.6534 21.722C28.8144 21.722 25.084 22.972 22.0475 25.2758L20.0759 23.3208C19.665 22.9207 19.1089 22.697 18.5299 22.699C17.9509 22.701 17.3964 22.9285 16.9884 23.3314C16.5804 23.7344 16.3523 24.2798 16.3543 24.8477C16.3564 25.4156 16.5883 25.9594 16.9992 26.3596L18.9925 28.2933C16.6157 31.2631 15.3261 34.9304 15.3309 38.7058C15.3238 41.4161 15.9775 44.0887 17.2376 46.5009C18.4976 48.913 20.3275 50.9947 22.5744 52.5724C24.8214 54.15 27.4205 55.1779 30.1548 55.5702C32.8891 55.9626 35.6794 55.7081 38.2931 54.828C40.9067 53.9478 43.268 52.4675 45.1798 50.5105C47.0916 48.5536 48.4987 46.1766 49.2836 43.578C50.0685 40.9793 50.2085 38.2343 49.692 35.5717C49.1755 32.9092 48.0173 30.4064 46.3142 28.2721ZM32.6642 51.4558C30.093 51.4558 27.5796 50.708 25.4418 49.307C23.3039 47.9061 21.6377 45.9148 20.6538 43.585C19.6698 41.2553 19.4124 38.6917 19.914 36.2184C20.4156 33.7452 21.6537 31.4733 23.4718 29.6902C25.2899 27.9071 27.6063 26.6928 30.128 26.2008C32.6498 25.7088 35.2636 25.9613 37.6391 26.9263C40.0145 27.8914 42.0448 29.5256 43.4733 31.6223C44.9018 33.719 45.6642 36.1841 45.6642 38.7058C45.6642 42.0873 44.2946 45.3303 41.8566 47.7214C39.4186 50.1125 36.112 51.4558 32.6642 51.4558ZM28.3309 19.5808H36.9975C37.5722 19.5808 38.1233 19.3569 38.5296 18.9584C38.9359 18.5599 39.1642 18.0194 39.1642 17.4558C39.1642 16.8922 38.9359 16.3517 38.5296 15.9532C38.1233 15.5547 37.5722 15.3308 36.9975 15.3308H28.3309C27.7562 15.3308 27.2051 15.5547 26.7988 15.9532C26.3925 16.3517 26.1642 16.8922 26.1642 17.4558C26.1642 18.0194 26.3925 18.5599 26.7988 18.9584C27.2051 19.3569 27.7562 19.5808 28.3309 19.5808ZM34.8309 32.3308C34.8309 31.7672 34.6026 31.2267 34.1963 30.8282C33.7899 30.4297 33.2388 30.2058 32.6642 30.2058C32.0896 30.2058 31.5385 30.4297 31.1321 30.8282C30.7258 31.2267 30.4975 31.7672 30.4975 32.3308V36.3471C30.0069 36.7774 29.6611 37.3437 29.5059 37.9711C29.3506 38.5984 29.3933 39.2572 29.6281 39.8603C29.863 40.4633 30.279 40.9822 30.8212 41.3483C31.3633 41.7144 32.006 41.9104 32.6642 41.9104C33.3224 41.9104 33.9651 41.7144 34.5072 41.3483C35.0494 40.9822 35.4654 40.4633 35.7003 39.8603C35.9351 39.2572 35.9778 38.5984 35.8225 37.9711C35.6673 37.3437 35.3215 36.7774 34.8309 36.3471V32.3308Z" fill="black"/>
</svg>
